<?xml version="1.0" encoding="utf-8"?>
<!-- Generator: Adobe Illustrator 20.0.0, SVG Export Plug-In . SVG Version: 6.00 Build 0)  -->
<svg version="1.1" id="Layer_1" xmlns="http://www.w3.org/2000/svg" xmlns:xlink="http://www.w3.org/1999/xlink" x="0px" y="0px"
	 viewBox="0 0 248 247.7" style="enable-background:new 0 0 248 247.7;" xml:space="preserve">
<style type="text/css">
	.st0{fill:#EEEEEF;}
	.st1{fill:#009FD9;}
	.st2{fill:#D2E5F6;}
	.st3{fill:#C8C9CA;}
	.st4{fill:#008CBE;}
	.st5{fill:#0D131A;}
	.st6{fill:#B5C6D5;}
</style>
<g>
	<path class="st0" d="M125.2,31.5c0.2,0.1,0.2,0.3,0,0.5c-0.4,0.8-0.9,1.3-1.4,1.5c-0.2,0.1-0.3,0.2-0.3,0.4c0,0.2,0,0.3,0.1,0.3
		c0.2,0.1,0.3,0.2,0.3,0.4c0,0.2-0.1,0.3-0.3,0.5c-0.6,0.5-1.3,1-1.9,1.7c-0.8,0.8-1.4,1.5-1.7,2.1c-0.8,0-1.5,0.3-2,0.8
		c-0.6,0.5-0.8,1.1-0.6,1.6l0.2,0.9c0,0.3-0.1,0.6-0.2,0.8l-7.2,6.3l-1.2,1.6c-0.6,0.9-1.1,1.6-1.5,2.3c0-0.8,0.1-1.6,0.2-2.4
		c0.1-1.1,0.3-1.9,0.6-2.5c0.5-1,0.7-1.9,0.8-2.7c0-0.7-0.1-1.5-0.5-2.3c-0.3-0.8-0.6-1.3-0.6-1.7c-0.1-0.6,0-1.1,0.4-1.6
		c0.5-0.6,1.6-1.7,3.4-3.5c1.9-1.8,3.1-2.9,3.6-3.2c0.9-0.5,1.7-0.8,2.4-0.8c0.8,0,1.4,0.3,1.7,0.9l1.3-0.2c0.5-0.2,1-0.5,1.3-0.9
		c1.1-0.3,1.9-0.6,2.3-1C124.8,31.5,125,31.4,125.2,31.5"/>
	<path class="st0" d="M178.4,82.3c-2.8-1-5.4-2-7.6-3.1c-2.8-1.3-4.8-2.4-6.2-3.5c-5.1,3.3-9.2,5.9-12.3,7.7
		c-5.6,3.2-10.7,5.6-15.4,7l-3.9,1.1c-1.6,0.4-3.1,0.5-4.3,0.5c-2.2-0.1-4.7,0.6-7.7,2.1c-2.1,1-4.7,3.4-8,7c-3.1,3.4-4.8,5.7-5.3,7
		c-0.4,1.1-1.1,2.3-2.1,3.5c-1,1.2-1.9,1.9-2.7,2.2c-0.7,0.3-1.5,0.9-2.3,1.8c-0.7,0.8-1.3,1.6-1.9,2.6c0.5,1.3,1.5,3.4,2.8,6.2
		c1.5,3.1,2.6,5.3,3.4,6.5c0.7,1.2,1.8,2.2,3.4,3c0.9,0.5,2.1,1,3.5,1.4c0.8-2.5,2.5-5.7,5.1-9.5c2.7-3.9,4.8-6.1,6.3-6.6
		c0,1.6-0.7,4.6-1.8,9c-0.8,3-1.7,6-2.6,9.1c2.8-5,7.7-10.2,14.6-15.6c2.6-2,5.1-3.8,7.7-5.3c2.2-1.4,3.9-2.3,5.1-2.7
		c-0.8,1.9-2.8,5.1-5.8,9.7c-2.7,4.1-5,7.5-7,10.1c4-3.2,8.4-6.3,13.3-9.4c5.1-3.2,8.9-5.1,11.5-5.9c-0.6,1.5-3.3,4.8-7.8,10.1
		c-5.1,5.8-9.4,10-13,12.8c2-1.1,4.8-2.1,8.4-2.9c2.9-0.7,5.2-1,6.6-1.1c-1.1,1.6-3.7,3.9-7.8,6.6c-2.9,1.9-5.9,3.7-9,5.4l1.1,1.4
		l1.2,1.3c1.8,0,5.5-0.6,11-1.9c3.6-0.9,6.7-1.7,9.2-2.4c1.7-0.5,4.5-1.1,8.3-1.9c3.8-0.8,6.5-1.3,8.2-1.5l3.1-0.6
		c1.5-0.3,2.6-0.6,3.3-0.9c2.2-0.9,5-1.6,8.5-2.1c3.1-0.4,5.3-0.5,6.7-0.3c-0.2,0.2-0.7,0.5-1.5,1c-0.9,0.5-1.6,0.9-2.2,1.1
		c1.8-0.3,4-0.3,6.5-0.1c2.4,0.2,4,0.6,4.9,1c0.8,0.4,1.8,0.7,3.1,0.8l3.2,0.1c-0.8,0.2-1.7,0.6-2.9,1.3c-1.1,0.7-1.9,1.2-2.2,1.6
		c1.2-0.2,2.7-0.2,4.4-0.1c1.6,0.1,2.7,0.2,3.2,0.4c-0.5,0.5-1.5,1.2-2.9,2.1c-1.3,0.8-2.4,1.4-3.5,1.8c3.7-0.3,9.4,0.3,17.1,1.7
		c7.2,1.3,11.5,2.4,12.7,3.3c-2,0.4-6.3,1.7-12.9,3.9c-7,2.3-11.8,3.8-14.4,4.4l3.7,1.1c1.6,0.5,2.8,0.9,3.5,1.3l-12.6,0.4
		c-6.2,0.1-11,0-14.2-0.1c-3-0.1-5.1-0.4-6.4-0.9c-1-0.4-2.4-0.6-4-0.6l-3.7,0.1c-0.9,0.1-2.3,0.1-4.4,0.1l-5.3-0.3l-11.2-1.2
		l-13.4-1.3c0.3,1.6,0.3,3.3-0.1,5.1c-0.4,1.8-1,3.3-1.9,4.3c2.5,0.2,7.2,0.8,14,1.9c7.3,1.2,14.6,2.5,21.9,3.9
		c19.5,3.9,30.4,7,32.8,9.5l-11.3-1.6l-14.1-2.3l-19.8-3.7c-10.3-2-16.5-3.2-18.6-3.7c-2.2-0.5-4.5-0.8-6.8-0.8
		c-2.9,0-5.3,0.5-7.4,1.3c-0.3,1.2-0.5,3-0.6,5.5c0,2.8,0.2,4.7,0.8,5.7c0.6,1,0.7,2.2,0.3,3.5c-0.4,1.2-1.2,2.6-2.5,4.2
		c-0.8,1-1.1,2.3-1,3.8c0.1,1.6,0.6,2.8,1.6,3.6l4,3.1c0.6,0.5,0.8,1.2,0.5,2c-0.1,0.3-0.4,0.7-0.8,1.1l-0.9,0.8
		c-0.2,0.2-0.5,0.3-0.9,0.3c-0.3,0-0.6-0.1-0.8-0.3l-1.6-1c-0.7-0.4-1.4-0.4-2.2,0.2c-0.4,0.3-1,1.1-1.9,2.3
		c-0.9,1.2-1.5,2.2-1.7,2.7c-0.3,0.9-1.2,1.3-2.6,1.3c-0.9,0-1.9,0.2-3,0.6L106,209c1-1.4,2.4-2.9,4.2-4.5c0.3-1.2,1-2.8,2-4.8
		c0.9-1.7,1.8-3.3,2.7-4.6c0.8-1.2,1-2.9,0.6-5.2c-0.3-2.1-1-4.5-2.2-7.2c-1,1.7-3.2,3.5-6.4,5.6c-2.7,1.7-5.2,3-7.5,3.8
		c-0.1,0.7-0.4,1.6-1,2.7c-0.1,0.2-0.2,0.9-0.3,2.1c-0.1,1.1-0.1,1.9,0,2.4c0,0.4,0.4,1,1.2,2l1.5,1.8c0.5,0.5,0.5,1.1,0.2,1.7
		l-0.9,0.8l-1.2,0.7c-0.5,0.3-1,0.2-1.6-0.2l-0.6-0.4l-0.6-0.4c-0.7-0.6-1.4-0.5-2.3,0.4l-1.8,1.7c-0.9,0.9-1.5,1.6-1.7,2.1
		c-0.5,0.9-1.3,1.3-2.4,1.2l-5.1,0.3l-6-7.3c0.1-0.8,0.6-1.4,1.5-2.1c0.8-0.5,1.5-0.9,2.1-0.9c0.3-0.7,1.1-1.5,2.2-2.5
		c1-0.8,1.8-1.4,2.4-1.7c0.4-0.2,0.8-0.6,0.9-1.2l0.2-1.5l-6.5,0.2l2.3-1l-4.4,0.4c-1.7,0-2.9,0-3.6-0.1c2.8-1.2,5.3-3.1,7.6-5.7
		c1.6-1.8,2.8-3.8,3.9-6c-0.4-1.1-0.9-2-1.7-2.5c-0.4-0.3-1.1-0.6-2-0.8c-2.8-0.8-5.4-2.1-7.8-3.9c-2-1.6-3.8-3.4-5.4-5.6
		c-0.5-0.7-0.8-1.9-0.9-3.6c-0.1-1.7,0.1-3.4,0.4-5.1c-3.2-5.7-5.5-12.2-6.7-19.6c-1.3-7.5-1.1-13.6,0.5-18.2
		c-1.1-0.4-3.2-1.5-6.2-3.1c-3.1-1.7-5.2-3-6.5-3.9c0.8,0.8,2.3,2.9,4.5,6.1l4.1,6.1c-6-1.5-13.6-6.2-22.7-14
		c-3.8-3.3-7.4-6.6-10.7-10.2c-3.2-3.4-5.7-6.4-7.4-9c-0.7-1-1.1-2-1.3-3c-0.2-0.7-0.2-1.5-0.2-2.5c0-0.8,0.3-2.3,0.9-4.3
		c0.6-2.2,1.2-3.7,1.8-4.7l10-4.5c0.4-0.4,1.2-0.5,2.2-0.5l8.6,0.4l10.7,0.8c0.5-1.3,2.4-3.7,5.6-7.1l0-2.4l0-2.6
		c0-1.6,0.3-3.1,0.8-4.7c0.6-1.7,1.5-3.2,2.7-4.6c1.7-1.9,3.2-3.9,4.5-5.9c1.8-2.7,2.9-4.9,3.2-6.7c0.4,0.8,0.6,2,0.7,3.5
		c0.1,1.4,0.1,2.7-0.1,3.8c0.5-0.6,0.9-1.4,1.2-2.2c0.1,0.3,0.2,0.9,0.3,1.7c1.8-2.3,3.9-4.3,6.2-5.9c2.5-1.7,4.5-2.4,6.2-2.2
		l0.8-1.2l0,1.5c1,0.3,2.1,1.2,3.1,2.6c0.8,1.2,1.5,2.5,2.1,4c2.2-0.5,4.8-0.9,7.9-1.3c1-0.1,2,0,3,0.2c0.7,0.2,1.4,0.5,1.9,0.8
		c0.4,0.2,1,0.8,1.9,1.9l2.1,2.5c0.2,0.3,0.4,1.1,0.4,2.4l0,2.8c0,0.5-0.3,1.5-0.8,2.9l-1.7,4.1c-0.6,1.4-0.7,2.5-0.2,3.4
		c0.5,0.8,1.3,1.1,2.5,0.9c0.7-0.1,1.5-0.4,2.6-0.9c1.2-0.6,2.3-1.2,3.3-1.9c-0.7-2-1.2-3.8-1.5-5.4c-0.3-1.4-0.4-2.4-0.3-3.1
		c-0.4-0.2-0.6-0.6-0.5-1.2c0-0.6,0.1-1,0.4-1.4l1-1.7c0.6-1,1.1-1.7,1.6-2.3l19-4.9c1.6,0.1,4.5-0.1,8.5-0.7l7.7-1.4
		c2.1-0.5,4.3-0.4,6.6,0.3c6.3,1.8,13.4,4.3,21.3,7.6c10.2,4.2,17.3,7.9,21.3,11.2c5.5,2.2,12,6,19.4,11.4
		c7.2,5.2,11.7,9.1,13.5,11.9c-0.8-0.3-1.9-0.7-3.3-1.1l-3.1-0.7c1.9,1.4,4.5,4,7.8,7.8c3.2,3.7,5.2,6.2,5.8,7.5
		c-1.4-0.2-4.7-1.3-9.8-3.3c-4.7-1.8-8.3-3.2-10.7-4.3c1.6,1.5,4,4.3,7.3,8.3c3.5,4.3,5.6,7.1,6.4,8.6c-2.2-0.9-6.9-3.3-13.9-7.2
		c-7.1-3.9-12-6.7-14.4-8.4c-2.4-1.6-5.8-3.4-10.4-5.4C185.9,85.1,182.3,83.7,178.4,82.3 M80.4,75.1c0.2,3.1,0.5,5.5,1.1,7.3
		c0.4-0.7,0.9-1.4,1.4-2c0.7-0.9,1.3-1.4,1.7-1.7c-0.2,0.9-0.5,2.2-0.8,3.9c-0.3,1.7-0.4,2.8-0.5,3.5c0.7-0.6,1.4-1.1,2-1.4
		c-0.5,0.8-0.9,1.7-1.2,2.6c-0.4,1-0.6,1.7-0.6,2.2c0.9,0,1.5,1,1.8,2.8c0.4,1.9,0.1,3.4-0.9,4.5l0.1,1.6c0.5-0.2,1-0.2,1.5,0
		c0.7,0.2,1.1,0.7,1.3,1.4l0.4,1.5l0.2,1.4c0,0.9-0.1,1.5-0.4,1.8l2.8,3.1c1.1-1.6,2.8-4.1,4.9-7.4c2.2-3.5,3.9-6.1,4.9-8
		c4.9-8.5,7.6-13.6,8.3-15.4c-1.8,0.8-3.8,1.5-6,1.9c-2.2,0.4-4.5,0.6-6.9,0.6c-1.6,0-2.8-0.7-3.5-2.1c-0.6-1-0.8-2.1-0.6-3.2
		c0.2-1.6,0.2-2.9,0-4.1c-1.7,1.6-3.2,1.7-4.7,0.5c-0.5-0.4-1.3-0.8-2.3-1.2c-1.3-0.4-2.5-0.6-3.7-0.5C80.3,70,80.2,72.1,80.4,75.1
		 M66.4,77.7c-1.1,0.7-1.9,1.2-2.3,1.4c0.8,0.4,2,1.1,3.6,2.1c1.7,1.1,2.9,1.9,3.5,2.4c-0.2-1.5-0.4-2.9-0.8-4.3
		c-0.4,0.5-1,0.9-1.7,1.3c0.1-0.5,0.1-1.2,0.1-2.2l-0.1-2.2L66.4,77.7 M64.8,123l-2.1-0.7c0.4,2.8,0.8,4.8,1.3,6.2l0.2-1.9
		c0.1-0.8,0.2-1.3,0.4-1.6c0.5,0.6,0.8,1.1,1,1.5l0.3-0.9L64.8,123"/>
	<path class="st1" d="M64.8,68.3l3.4-2.7c-0.1,2-0.8,3.6-2.2,4.7c-1.4,1.1-3,1.3-4.8,0.7L64.8,68.3"/>
	<path class="st2" d="M121.2,42.6c2.1-0.1,4.2,0.3,6.2,1.2c2.2,1,3.7,2.4,4.5,4.2c0.1,0.3,0.1,0.6,0,0.9c-0.2,0.2-0.4,0.4-0.7,0.5
		l-5,1.3c-0.5,0.1-0.9,0.1-1.2-0.2l-0.8-0.8c-1.1-1.1-2.9-1.8-5.3-1.9c-2.6-0.1-4.9,0.4-7,1.5c-0.7,0.4-1.2,0.4-1.5,0.1
		c-0.3-0.3-0.3-0.8,0.1-1.4c0.8-1.3,2.1-2.5,3.9-3.5C116.3,43.4,118.7,42.7,121.2,42.6"/>
	<path class="st2" d="M22.2,74.9l2.4-0.9c0.6-0.2,1.1-0.3,1.5-0.2c0.3,0.1,0.7,0.3,1.2,0.6c0.6,0.4,1.2,1,1.9,1.9
		c0.7,0.8,1.1,1.6,1.4,2.2c0.3,0.8,0.2,1.4-0.4,1.9c-0.2,0.2-0.7,0.4-1.5,0.8L27.2,82c-0.7,0.3-1.2,0.1-1.7-0.6
		c-0.2-0.3-0.6-0.7-1.2-1.3l-1.5-1.3c-0.4-0.3-0.9-0.4-1.5-0.2c-0.6,0.2-0.9,0.5-1.1,1c0.4,0.1,0.7,0.3,0.9,0.6
		c0.2,0.3,0.3,0.7,0.2,1.1c0,0.5-0.3,0.9-0.7,1.1c-0.4,0.2-0.8,0.3-1.3,0.3c0.1,0.5-0.1,1-0.4,1.4c-0.2,0.3-0.5,0.5-0.9,0.7
		c0,0.7-0.3,1.3-1,1.9c-0.5,0.4-1.7,1.1-3.7,2.1c-1.9,0.9-3.3,1.6-4.2,1.9c0.3-0.8,1-1.8,2.2-3.1c0.8-0.9,1.7-1.8,2.8-2.7
		c-0.7,0-1.9-0.1-3.3,0L7.1,85c0.6-0.6,1.7-1.2,3.3-2c1.4-0.6,2.7-1.1,3.9-1.5l-4.3-0.8c1.8-0.7,4.5-1.1,8.1-1.3
		c0-0.7,0.1-1.4,0.5-2c0.4-0.7,0.9-1.2,1.6-1.6C20.6,75.6,21.3,75.3,22.2,74.9"/>
	<path class="st2" d="M25.8,85.8c-0.6,1-1.5,1.8-2.9,2.6c-1.3,0.7-2.5,1.1-3.6,1.2c0.3-0.6,1-1.5,2-2.9c0.9-1.2,1.6-2.2,2.2-2.8
		c0.7-0.8,1.4-1,2.2-0.4C26.4,84,26.5,84.8,25.8,85.8"/>
	<path class="st2" d="M70.4,95.2c0-0.5,0-1,0.2-1.3c0.2-0.4,0.5-0.7,1-0.9l0.7,1.7c0,0.4,0.1,0.8,0.4,1c0.4,0.3,0.9,0.3,1.6,0.1
		c0.8-0.3,2.2-0.8,4-1.6c1.9-0.9,3.3-1.5,4.1-2.1c0.4-0.2,0.6-0.5,0.8-0.7c0.2-0.3,0.3-0.6,0.3-1c0-0.4,0.1-0.6,0.3-0.7
		c0.2,0,0.4,0.1,0.6,0.3c0.6,0.7,1,1.7,1.1,3.1c0.1,1.4-0.2,2.6-0.8,3.5c-0.7,1-2.3,2-4.8,3.1c-2.6,1.1-4.9,1.7-6.7,1.6
		c-0.6,0-1.2-0.2-1.6-0.7c-0.4-0.4-0.7-1-0.8-1.6L70.4,95.2"/>
	<path class="st2" d="M84.6,98.5c0.6-0.3,1.1-0.2,1.7,0c0.6,0.3,1,0.8,1.1,1.4c0.2,0.8,0.4,1.8,0.5,2.9c0.1,0.9-0.1,1.6-0.6,2.1
		c-2.1,1.7-4.3,3.2-6.7,4.2c-2.8,1.2-5.4,1.9-8,1.9c-0.6,0-1.1-0.1-1.4-0.4c-0.3-0.3-0.5-0.7-0.6-1.3c-0.1-0.5-0.1-1.3-0.2-2.3
		c-0.1-1.1-0.1-2-0.1-2.5c0-0.6,0.2-1,0.6-1.4c0.4-0.3,0.8-0.5,1.4-0.6l-0.1,2c0.4,0.3,1.1,0.4,2,0.4c0.9,0,1.8-0.1,2.7-0.4
		c1-0.3,2.3-0.9,3.9-1.8c1.8-1,3.1-1.8,4-2.6L84.6,98.5"/>
	<path class="st2" d="M76.8,202.7l-0.4,0.8c1.2,0,2,0.3,2.6,0.9c0.4,0.5,0.6,1.1,0.6,1.8c0.9-0.1,1.7,0.1,2.4,0.7
		c0.6,0.5,1,1.1,1.2,1.9c0.2,0.8,0.1,1.4-0.4,2c-0.5,0.6-1.4,0.8-2.5,0.8l-5.9,0.4l-6.9,0.8l0.7-0.7l-3.5,0.5l-3.6,0.1
		c0.3-0.4,0.8-0.9,1.6-1.5c0.8-0.7,1.5-1.2,2.2-1.8c0.4-0.7,1-1.5,1.7-2.3c0.7-0.7,1.5-1.4,2.3-1.9c0.8-0.5,2.1-1.1,3.8-1.6
		C74.5,203,75.9,202.7,76.8,202.7"/>
	<path class="st2" d="M107.5,209.5c1.2-0.3,2.3-0.1,3.2,0.6c0.7,0.5,1.3,1.1,1.7,2l2.4-0.1c0.7,0.3,1.3,0.8,1.6,1.7
		c0.8,1.6,0.2,2.9-1.7,3.8c-1.3,0.6-3.4,1.1-6.5,1.7c-3.2,0.6-5.8,0.9-7.8,0.9l0.7-0.9c-1.3,0.5-2.8,0.9-4.5,1.2
		c-1.8,0.3-3.1,0.3-3.8,0.1l1.1-1.3l1.5-1.5c0.2-1.4,1.3-3,3.4-4.8c1.5-1.4,3.1-2.4,4.5-3.2c0.9-0.5,1.8-0.7,2.6-0.6
		C106.5,209,107,209.2,107.5,209.5"/>
	<path class="st2" d="M132.5,208c0.5,0.7,0.9,1.8,1.4,3.2c0.4,1.2,0.7,2.3,0.9,3.5l-4.7-3.8c0.5-0.2,1-0.6,1.6-1.3
		C132.1,209,132.4,208.5,132.5,208"/>
	<path class="st0" d="M137.6,152.1l7.2-1.4c2.6-0.5,4.6-1,6-1.4l10.4-2.5c5.7-1.3,9.3-2.1,10.7-2.2l3.2-0.4c1.6-0.3,2.7-0.6,3.5-0.9
		c0.1,0.1,0.7,0.1,1.6,0c0.9-0.1,1.5-0.1,1.5,0l4.2,2.4c1.8,1.5,3,2.7,3.5,3.5c-1.5,0.4-4,0.9-7.5,1.5c-3.8,0.7-6.2,1-7.2,1l-6,0.3
		l-8.8,1.1c-4.8,0.7-8.2,1.3-10.2,1.8c-3.4,0.8-6,0.9-8,0.3C140.2,154.7,138.9,153.7,137.6,152.1"/>
	<path class="st2" d="M113.1,56.3c-0.8,1.3-2.5,2.7-5.2,4.2c-2.4,1.3-4.3,2.1-5.8,2.3c0.5-0.8,1.3-1.8,2.3-3
		c1.2-1.4,2.2-2.6,3.3-3.7c0.1,0.2,0.3,0.4,0.5,0.5l1.2,0.1L113.1,56.3"/>
	<path class="st0" d="M133.5,24.4c-1,1-1.9,1.9-2.6,2.7c-0.9,1.1-1.4,2-1.4,2.5c0,0.3-0.1,0.6-0.2,0.7c-0.1,0.2-0.3,0.3-0.7,0.3
		c-0.3,0-0.4,0.1-0.5,0.3c-0.1,0.2,0,0.4,0.1,0.7c0.3,0.5,0.5,0.9,0.4,1.3c-0.1,0.4-0.4,0.6-0.9,0.6c-0.7,0-1.1,0.2-1.2,0.6
		c0,0.2-0.1,0.5-0.3,0.7l-0.5,0.5c-1.8,1.3-2.9,2.1-3.3,2.2c-0.6,0.2-0.9,0.5-1,0.8c-0.1,0.5-0.6,0.8-1.4,0.8
		c0.3-0.6,0.8-1.3,1.7-2.1c0.6-0.6,1.3-1.2,1.9-1.7c0.2-0.1,0.3-0.3,0.3-0.5c0-0.2-0.1-0.3-0.3-0.4c-0.1-0.1-0.2-0.2-0.1-0.3
		c0-0.2,0.2-0.3,0.3-0.4c0.5-0.3,0.9-0.8,1.4-1.5c0.2-0.3,0.1-0.4,0-0.5c-0.2-0.1-0.4-0.1-0.6,0.1c-0.4,0.4-1.2,0.7-2.3,1
		c0.3-0.4,0.5-0.8,0.6-1.3c0.1-0.5,0.3-0.9,0.6-1.3c0.3-0.5,0.7-0.8,1.2-1.1l2-1.2c0.9-0.6,1.5-1.1,1.8-1.5c0.5-0.6,1.3-1,2.5-1.3
		l1.3-0.3L133.5,24.4"/>
	<path class="st3" d="M209.4,147.2c0.2-0.3,1-0.6,2.2-0.8l2.7-0.4c0.8-0.1,1.6-0.5,2.2-1.1c0.4-0.1,0.7,0,0.9,0.3
		c0.1,0.3,0.2,0.5,0.1,0.8c-0.1,0.2,0,0.4,0.1,0.6c0.1,0.2,0.3,0.3,0.6,0.3c0.2,0,0.2,0.1,0.3,0.3c0,0.2-0.1,0.3-0.3,0.5l-1.1,0.6
		l-1.2,0.3c-0.7,0.1-1.1,0.4-1.3,0.9c-0.2,0.5,0.2,0.8,1,0.9l2.8,0.5c-1.2,0.1-2.3,0.5-3.5,0.9l-8.7-0.4c1-0.4,2.2-1,3.6-1.9
		c1.3-0.8,2.3-1.5,2.9-2.1C211.8,147.4,210.8,147.3,209.4,147.2"/>
	<path class="st0" d="M241.2,119.8c-1.2,0.6-2.7,1.6-4.4,3c-1.5,1.3-2.7,2.4-3.4,3.4l1.3,0.1l0.8,0.3c-0.7,0.2-1.5,0.7-2.5,1.4
		c-1,0.7-1.7,1.4-2,2c-0.3,0.6-0.9,1.2-1.6,1.9c-0.7,0.6-1.3,1-1.9,1.3c-0.5,0.2-0.8,0.5-1,0.8c-0.2,0.3-0.3,0.6-0.4,1.1
		c-0.1,0.4,0,1.3,0.1,2.9l0.3,3.5c0.1,0.7,0.8,1.9,2.1,3.6c1,1.3,2,2.3,2.8,3.1c0.5,0.5,0.7,0.9,0.6,1.3c0,0.3-0.3,0.6-0.7,1.1
		c-0.4,0.4-0.8,1-1.2,1.9c-0.4,0.8-0.7,1.5-0.8,1.9c-1.4-0.4-3.4-0.9-6.3-1.4c-2.7-0.4-5.5-0.8-8.4-1.1c1.1-0.5,2.3-0.8,3.5-0.9
		l-2.8-0.5c-0.8,0-1.1-0.3-1-0.9c0.2-0.5,0.6-0.9,1.3-0.9l1.2-0.3l1.1-0.6c0.2-0.2,0.3-0.3,0.3-0.5c0-0.2-0.1-0.3-0.3-0.3
		c-0.2-0.1-0.4-0.2-0.6-0.3c-0.1-0.2-0.2-0.4-0.1-0.6c0.1-0.3,0.1-0.5-0.1-0.8c-0.2-0.3-0.4-0.4-0.9-0.3c0.7-0.6,1.1-1.4,1.5-2.3
		c0.2-0.7,0.1-1.5-0.4-2.6l-1.4-2.7c-0.8-1.5-1.1-3.1-1-4.6c0.1-1.5,0.7-2.6,1.6-3.5c2-1.7,5.4-3.6,10.3-5.6
		C232.4,121.3,237.2,120.1,241.2,119.8"/>
	<path class="st0" d="M152,34.8l1.8-0.4l1.6-0.1c0.3,0,0.5,0.1,0.5,0.3c0,0.2-0.1,0.4-0.4,0.5c-0.7,0.3-1.1,0.6-1,0.9
		c0,0.4-0.1,0.8-0.6,1.1c-0.6,0.5-1.2,0.9-1.8,1.2c-0.2,0.1-0.3,0.2-0.3,0.3c0,0.1,0.1,0.2,0.3,0.2l1.6,0.1c0,0.2-0.2,0.3-0.4,0.4
		l-0.7,0.1l-0.7,0.2l-1,0.3l-1.7,0.3c-0.9,0-1.5,0-1.9-0.2c-0.7-0.3-1.3-0.2-1.7,0.2c-0.8,1-1.5,1.9-1.8,2.6
		c-1.8,0.4-4.9,0.9-9.4,1.6c0.7-0.4,1.3-0.9,1.8-1.7c0.4-0.7,0.7-1.4,0.8-2.1c0.1-1.3,0.4-2.2,1-2.8l1.4-1.1c0.7-0.5,1.3-0.9,1.7-1
		c0.7-0.3,1.8-0.5,3.6-0.7l3.9-0.2c0.8,0,1.3,0.2,1.6,0.5c0.2,0.2,0.5,0.2,1,0.1C151.5,35.3,151.9,35.1,152,34.8"/>
	<path class="st4" d="M67.2,67.7c-0.5,0.3-1.3,0.8-2.5,1.6l-2.5,1.8L61.5,71c0.5-0.5,2.5-2,5.8-4.6L67.2,67.7"/>
	<path class="st0" d="M167,30.4c-1.6,0.7-3,1.4-4.4,2.3c-1.8,1.1-2.8,2-3.1,2.7c0.2,0,0.6,0.1,1.2,0.3c-0.7,0.1-1.4,0.3-2,0.6
		c-0.6,0.3-1,0.5-1.2,0.8c-0.2,0.3-0.6,0.5-1.2,0.8c-0.6,0.3-1.1,0.4-1.5,0.4c-0.6,0-1,0.1-1,0.5l-1.6-0.1c-0.2,0-0.3-0.1-0.3-0.2
		c0-0.1,0.1-0.2,0.3-0.3c0.5-0.3,1.1-0.7,1.8-1.2c0.4-0.4,0.6-0.7,0.6-1.1c0-0.3,0.3-0.6,1-0.9c0.3-0.1,0.4-0.3,0.4-0.5
		c0-0.2-0.2-0.3-0.5-0.3l-1.6,0.1l-1.8,0.4l0-0.1c0.2-0.7,1-1.5,2.2-2.2c1.2-0.8,2.3-1.1,3.2-1.1l4.7-0.3L167,30.4"/>
	<path class="st5" d="M66.9,66.7c0.5-0.3,1-0.7,1.4-1.1c0,0.6-0.1,1.3-0.5,2.1c-0.3,0.8-0.8,1.5-1.2,2.1c0.2-0.4,0.3-1,0.3-1.5
		L66.9,66.7"/>
	<path class="st3" d="M158,165.1c8.7,0.9,14.4,1.2,17.2,0.9c1.3-0.2,2.8-0.2,4.4,0l2.8,0.4l1.6,0.5l2.5,0.5c0.8,0.1,3.7,0.1,8.8,0.1
		l13.7-0.1c-0.1,0.6-0.4,1-0.7,1.2c-0.3,0.1-0.4,0.3-0.3,0.5c0,0.2,0.3,0.3,0.7,0.3l1.6-0.2c0.5-0.1,0.9-0.4,1.2-0.6
		c0.2-0.2,0.4-0.3,0.6-0.3c0.2,0,0.4,0,0.6,0.2c0.2,0.2,0.4,0.3,0.8,0.5l1.1,0.1c-1,1.1-2.2,2.4-3.8,3.7l-3.5,2.7
		c-1,0.7-2.1,1.2-3.4,1.5l-3.1,0.2c-1.2-0.2-4-0.3-8.4-0.3l-0.7,1.2c-0.4,0.6-1.1,0.8-2.1,0.7l-0.8,1.3l-1,1.3
		c-3.6-1.1-12-2.8-25.2-5.1c-12.6-2.2-20.4-3.3-23.6-3.5c0.9-1.1,1.5-2.6,1.9-4.5c0.3-1.9,0.3-3.5-0.1-4.9L158,165.1"/>
	<path class="st3" d="M108.4,60.2c0,0.4,0.3,1.1,0.7,2.2c0.4,1.1,0.6,1.9,0.7,2.3c-3.1,1.7-5,2.7-5.9,2.8c-1.2,0.2-2.1-0.2-2.5-1.1
		c-0.5-1-0.3-2.2,0.4-3.7C102.9,63,105.1,62.2,108.4,60.2"/>
	<path class="st3" d="M79.4,60.3l4.6,0.6c2.1,0.3,3.8,1.1,5,2.4c1.3,1.5,2.2,3.7,2.5,6.6c-0.7,0.9-1.5,1.3-2.5,1.4
		c-0.8,0-1.6-0.2-2.2-0.7c-1.6-1.2-3.7-1.9-6.2-1.9c-0.3,1.1-0.4,2.4-0.4,4l0.2,5.3c-0.2-2.4-0.7-4.6-1.5-6.6
		c-0.7-1.9-1.5-3.3-2.5-4.2l4.8-4.4c-1.3,0-3.4,0.6-6.5,1.7c-3.1,1.2-5.5,2.2-7,3.3c0.3-0.6,0.4-1.4,0.5-2.4l1.3-1.4l1.1-1.4
		c0.6-0.9,1.3-1.6,2.1-2.1c0.8-0.5,1.6-0.7,2.3-0.6L79.4,60.3"/>
	<path class="st3" d="M75.5,73.5L73,73.4c-0.5,0-0.8-0.2-0.8-0.6s0.3-0.6,0.7-0.7c0.9-0.1,1.9,0.1,3.1,0.6c1.2,0.5,2,1.1,2.6,1.9
		C77.8,74,76.8,73.7,75.5,73.5"/>
	<path class="st3" d="M69.6,75.2c-1,1-2.4,2.1-4.3,3.3c-2,1.2-3.5,1.8-4.4,1.9c-1.9,0.1-3.9-0.2-6-0.8c-1.7-0.5-3.2-1.2-4.6-2.1
		c-1.1-0.7-1.1-1.7,0-3c-0.2,0.5-0.1,0.9,0.2,1.4c0.2,0.4,0.6,0.7,1,0.9c1.2,0.7,2.8,1.2,4.8,1.6c1.8,0.4,3.3,0.5,4.5,0.3
		c1.6-0.2,3.2-0.7,4.9-1.3C67.1,76.7,68.4,76,69.6,75.2"/>
	<path class="st3" d="M83.3,86.7c0.2-0.3,0.4-0.7,0.9-1c0.4-0.3,0.7-0.6,1.1-0.7c-0.4,0.8-0.8,1.8-1.2,2.7c-0.4,1.1-0.6,1.9-0.6,2.5
		C83.3,88.5,83.3,87.3,83.3,86.7"/>
	<path class="st3" d="M77.3,94.6l0-0.8c2.4-1.1,3.9-1.9,4.5-2.4c0.3-0.2,0.5-0.4,0.6-0.7l0.2-0.9c0.1-2.2,0.3-3.8,0.4-4.6
		c0.4-2.8,1-4.9,1.8-6.3c-0.4,1.1-0.7,2.9-1,5.4c-0.3,2.8-0.3,4.7-0.1,5.9c0.1,0.3,0,0.7-0.1,1c-0.2,0.3-0.4,0.6-0.8,0.9
		C81.9,92.5,80.1,93.4,77.3,94.6"/>
	<path class="st3" d="M78.8,84.9c0.2,0.8,0.4,1.7,0.7,2.7c0.4,1.1,0.7,1.9,1,2.5c0.2,0.3,0.1,0.6-0.2,0.8c-0.3,0.2-0.5,0.1-0.8-0.4
		c-0.2-0.5-0.5-1.4-0.6-2.6C78.8,86.6,78.7,85.6,78.8,84.9"/>
	<path class="st3" d="M69.4,87.7c1,1.1,1.8,2.2,2.4,3.2l0.2,2.6L69.4,87.7"/>
	<path class="st3" d="M78.1,100.3c2.5-0.9,4.7-2.1,6.5-3.6l0.1,1.5c-2.5,1.7-4.9,2.9-7.2,3.5c-2.1,0.6-3.9,0.8-5.2,0.4l0.1-1.1
		C73.7,101.4,75.6,101.2,78.1,100.3"/>
	<path class="st6" d="M85.5,93.2c0.2,1.6-0.2,2.7-1,3.5c-1.5,1.4-3.6,2.6-6.1,3.5c-2.1,0.8-3.8,1.2-4.9,1.1c-0.5,0-1.1-0.2-1.6-0.5
		c-0.5-0.3-0.8-0.6-0.9-1c-0.2-0.8-0.2-1.4-0.2-1.8c0.3,0.8,0.7,1.4,1.3,1.7c0.5,0.3,1.3,0.4,2.2,0.3c1.7-0.2,3.6-0.7,5.8-1.7
		c2.1-0.9,3.4-1.8,3.8-2.5c0.5-0.8,0.7-1.8,0.6-2.8c-0.1-1-0.4-1.7-0.9-2.3c0-0.6,0.1-0.9,0.2-1.1c0.2-0.2,0.4-0.1,0.7,0.2
		C85,90.7,85.4,91.8,85.5,93.2"/>
	<path class="st6" d="M84.9,99.7l-0.2-1.3c0.7-0.2,1.3-0.2,1.8,0.2c0.4,0.3,0.7,0.6,0.9,1c0.2,0.5,0.4,1.6,0.6,3.2
		c0.1,0.9-0.1,1.6-0.7,2.1c-1.8,1.6-3.9,3-6.5,4.1c-2.6,1.1-5.2,1.8-7.9,2c-1.7,0.1-2.5-0.7-2.3-2.6c0.2,1,1,1.5,2.3,1.5
		c1.9,0,4.1-0.6,6.8-1.7c2.6-1.1,4.6-2.3,6.2-3.6c0.7-0.6,1-1.1,1-1.6c0-0.8-0.1-1.7-0.4-2.6c-0.1-0.4-0.3-0.6-0.6-0.7L84.9,99.7"/>
	<path class="st3" d="M80.5,109.1c3.1-1.4,5.5-2.9,7.1-4.5l0.6,0.8c-1.9,2.3-4.5,4-7.8,5.3c-3.2,1.2-6.3,1.7-9.4,1.5l0.5-1.4
		C73.9,111.3,76.9,110.7,80.5,109.1"/>
	<path class="st3" d="M77.5,51.4c0.4-0.4,0.9-1,1.5-1.8c0.5-0.2,1.2-0.7,1.9-1.4c-0.2,0.7-0.7,1.4-1.5,2.1
		C78.7,51,78.1,51.4,77.5,51.4"/>
	<path class="st3" d="M80.6,60.4l-6.2-0.6c5.8-0.5,10.3-0.1,13.6,1.1c3.1,1.1,5,3.3,5.8,6.8c0.4,1.7,1,3,1.9,3.9
		c0.9,0.9,2,1.2,3.3,1c2.1-0.3,4.1-1,6.2-2c2-0.9,3.7-2.1,5.1-3.4c0.3,3.6-0.2,6.9-1.6,9.8c-1.8,0.8-3.9,1.4-6.3,1.9
		c-2.7,0.6-5,0.8-6.9,0.6c-1.3-0.1-2.3-0.6-3-1.5c-0.6-0.9-0.9-2.1-0.9-3.5c0.1-3.7-0.3-6.6-1.1-8.7c-0.9-2.3-2.2-3.7-4.2-4.2
		C85.3,61.1,83.4,60.8,80.6,60.4"/>
	<path class="st3" d="M138.9,50.9c3.7-0.1,6.1,0,7.2,0.4c1.1,0.4,3.6,3.4,7.4,8.9c2.1,3,4.2,6.3,6.5,9.9c1.6,2.5,3.1,4.4,4.6,5.6
		c-0.9,0.5-3.2,1.9-6.7,4l-6.8,4.1c-1,0.7-2.9,1.6-5.6,2.9c-2.8,1.3-5.1,2.3-7,3c-2.1,0.8-3.8,1.3-5.1,1.7c-1.9,0.5-3.4,0.7-4.5,0.7
		c-1.4-0.1-2.7,0-4,0.4c-1.1,0.3-2.3,0.8-3.8,1.5c-2,1-4.6,3.1-7.8,6.4c-3.3,3.4-5.3,6.2-6,8.2c-0.8,2.3-2.4,4-4.6,5
		c-1.1,0.5-2.2,1.6-3.3,3.3c-1,1.5-1.7,3-2.1,4.5c-0.1-1.8,0.2-3.7,0.9-5.7c0.7-2,1.5-3.3,2.4-3.8c1.2-0.6,2.2-1.5,3-2.5
		c0.6-0.9,1.3-2.1,2-3.6c0.7-1.6,2.1-3.9,4.3-7c2.6-3.5,5-6.3,7.2-8.2c2.3-2,4.9-3.6,7.8-4.7c2.2-0.9,5-1.6,8.3-2.2
		c4.6-0.8,8.9-2.7,12.8-5.6c4.2-3.2,6-6.5,5.5-9.7c-0.3-1.8-1.4-4.5-3.3-8.1c-1.9-3.7-3.4-5.8-4.4-6.2c-1.3-0.5-3.5-1-6.6-1.2
		c-3-0.3-5.7-0.3-8.1-0.1C131.4,51.7,134.6,51.1,138.9,50.9"/>
	<path class="st3" d="M28.8,83.8c7.2,2.1,14,5.2,20.5,9.3c6.5,4.1,10.4,8,11.9,11.5c0.5,1.1,0.8,2.3,1.1,3.5
		c0.3,1.3,0.4,2.5,0.3,3.5c-0.1,1.4,0.4,2.8,1.6,4.3c1.2,1.5,2.4,3.4,3.5,5.8L66,126c-0.4-1.3-1.1-2.8-2.1-4.6
		c-1-1.9-1.8-3.1-2.4-3.7c-0.9-1-1.5-2.1-1.7-3.5c-0.2-1.1-0.2-2.2,0.1-3.5c0.2-0.9,0-2.2-0.7-3.6c-0.5-1.2-1.2-2.4-2.1-3.6
		c-0.9-1.2-2-2.4-3.2-3.8c-1.4-1.6-2.5-2.6-3.3-3.2c-2.3-1.6-5.6-3.7-10.1-6.3C35.6,87.2,31.6,85,28.8,83.8"/>
	<path class="st3" d="M25.1,86.8l0.5-0.6c1,0.2,2,0.1,3-0.3c1-0.4,1.6-0.8,1.8-1.3c2.1,1,5.7,2.9,10.7,5.8c4.8,2.8,7.8,4.7,9.2,5.7
		c2,1.5,4.5,4.3,7.5,8.2c0.8,1.1,1.4,2.2,1.8,3.5c0.3,1,0.5,1.8,0.4,2.4c-0.2,1.5-0.2,2.8-0.1,3.9c0.2,1.4,0.8,2.6,1.8,3.6
		c0.6,0.7,1.7,2.5,3.1,5.5l-2.1-0.8l-0.3-1.6c-0.4,0.4-0.6,0.8-0.8,1.2c-0.9-0.4-2.9-1.4-5.8-3c-2.2-1.2-4.4-2.5-6.5-3.8
		c-1.2-1.6-3.3-4.2-6.2-7.5c-2.7-3.2-5.2-5.9-7.3-8.1c-0.4-2.9-1.3-5.5-2.7-8c-1.4-2.5-2.7-3.7-3.9-3.5l-2.2-0.2
		C26.2,87.6,25.6,87.2,25.1,86.8"/>
	<path class="st3" d="M17.2,86.5c0.6-0.5,0.8-1.1,0.8-1.7c0.3-0.1,0.6-0.4,0.9-0.7c0.3-0.4,0.4-0.9,0.4-1.3h0.6
		c0.1,0.5,0,0.9-0.1,1.4c-0.1,0.5-0.3,0.9-0.6,1.2c-0.1,0.5-0.2,1-0.5,1.5c-0.2,0.5-0.5,0.9-0.7,1.1c-0.2,0.2-0.4,0.5-0.4,0.9
		c-0.1,0.4,0,0.8,0.1,1.1c0.6,1.4,2.3,3.8,5.2,7.1c2.8,3.3,6.2,6.8,10.2,10.6c9.6,9.2,17.9,15.7,24.9,19.7
		c-5-0.8-12.5-5.4-22.4-13.8c-4.1-3.5-8-7.1-11.4-10.7c-3.5-3.6-6-6.6-7.4-9c-1.2-1.9-1.6-4-1.2-6.1C16.2,87.3,16.8,86.9,17.2,86.5"
		/>
	<path class="st3" d="M29.9,80.7l0.7-0.4l0.7-0.6c0,0.3,0,0.7-0.3,1.1c-0.2,0.4-0.5,0.7-0.9,1l-1.7,1l-1.6,0.7l-0.9,0
		c-0.3-0.1-0.6-0.2-0.7-0.5c-0.7-1-1.4-1.9-2.1-2.5c-0.3-0.3-0.7-0.5-1-0.5c-0.4-0.1-0.7,0-1,0.2c-0.1-0.3-0.4-0.5-0.9-0.6
		c0.2-0.5,0.6-0.8,1.2-1c0.5-0.1,1.1,0,1.6,0.3c0.6,0.4,1.5,1.3,2.8,2.8c0.3,0.3,0.5,0.5,0.8,0.5l0.8-0.2
		C28.5,81.5,29.4,81.1,29.9,80.7"/>
	<path class="st3" d="M122.5,55.5c1.8-0.1,3.4-0.4,4.8-0.9c-1.3,1-2.9,1.7-4.8,2l-6.1-0.2l-3.2-0.2l-4.1,0.2
		c-1.1,0.1-1.7-0.4-1.7-1.5c0-0.9,0.3-1.9,1-2.7c-0.2,0.9,0,1.6,0.7,2c0.7,0.4,1.7,0.5,3,0.2c0.6-0.1,1.6-0.1,2.8,0
		c1.2,0.1,2.3,0.3,3.2,0.6C119.3,55.4,120.8,55.6,122.5,55.5"/>
	<path class="st3" d="M132,49.9c-0.3,0.4-0.6,0.6-1,0.8l-2.6,0.7l-2.8,0.6c-0.9,0.1-1.6-0.2-2.1-1c-0.8-1.3-2.5-2.1-5.1-2.2
		c-2.4-0.1-4.4,0.4-6,1.4h-1.6c1.5-1.5,3.9-2.3,7-2.3c3.2-0.1,5.4,0.7,6.6,2.3c0.4,0.5,1,0.7,1.9,0.5l2.3-0.5l2.2-0.6l0.8-0.3
		c0.3-0.1,0.6-0.3,0.8-0.6C132.4,49.1,132.3,49.5,132,49.9"/>
	<path class="st6" d="M10.3,80.7l5.8,0.3c2.8,0.2,4.6,0.5,5.2,0.7c-0.4,1-1.2,1.3-2.3,1l-4.2-1C12.6,81.1,11.1,80.8,10.3,80.7"/>
	<path class="st6" d="M7.1,84.9l5.3-1.5c2.5-0.6,4.2-1,5.1-1.1l1.6,0.4c0.1,0.6,0,1.1-0.4,1.5c-0.5,0.5-1.2,0.7-2.1,0.7
		c-1,0-2.6-0.1-4.7-0.1C9.6,84.8,8,84.8,7.1,84.9"/>
	<path class="st6" d="M9.1,90.6l3.4-3c1.6-1.3,2.7-2.2,3.3-2.7l1,0l1.1-0.2c0.1,0.8-0.4,1.5-1.3,2.1c-0.7,0.5-1.9,1.1-3.6,2
		C11.1,89.8,9.9,90.4,9.1,90.6"/>
	<path class="st6" d="M25.5,83.4c0.5,0.1,0.7,0.4,0.7,0.9c0,0.5-0.1,1-0.4,1.5c-0.5,0.8-1.5,1.7-3,2.5c-1.4,0.8-2.6,1.2-3.4,1.2
		c1.4-0.6,2.7-1.6,4-2.8C24.8,85.4,25.5,84.3,25.5,83.4"/>
	<path class="st3" d="M210.4,73.3c1.9,0.9,4.8,2.7,8.6,5.2c3.6,2.4,6.4,4.5,8.4,6.2c-1-0.3-2-0.6-3.2-0.9l-2.8-0.6
		c-1.6-1.7-3.5-3.4-5.5-5.3C213.6,75.7,211.7,74.2,210.4,73.3"/>
	<path class="st3" d="M178.1,82.2c-3.1-1.2-5.2-2-6.2-2.4c-2.9-1.4-5.1-2.6-6.5-3.6c-1.9-1.3-3.4-2.8-4.5-4.5l-6.4-10.3
		c2.3,3.1,4.6,5.8,6.9,8.2c2.8,2.8,5.1,4.7,7,5.6c1,0.5,5,2,11.8,4.6c6.3,2.4,10.6,4.2,13,5.4c2.9,1.6,8.4,4.8,16.4,9.8
		c9.2,5.7,15.4,9.9,18.6,12.5c-2.4-0.9-7.5-3.6-15.4-7.9c-7.8-4.3-13-7.3-15.5-9.1c-1.1-0.8-2.9-1.7-5.4-2.9c-2.3-1.1-4.5-2-6.6-2.8
		L178.1,82.2"/>
	<path class="st3" d="M210.6,86.6c4.3,1.6,8.4,3.4,12.3,5.2c5.4,2.4,9.4,4.6,12.2,6.5c-1.8-0.5-5.3-1.7-10.5-3.7
		c-4.7-1.8-8-3.1-10.1-4C213.4,89.6,212.1,88.3,210.6,86.6"/>
	<path class="st3" d="M64.5,152.4c-1.4-3.5-2.3-6.3-2.7-8.6c3.8,8.6,9.8,14.3,17.8,17.3c3.2,1.2,6.5,1.8,10.1,1.9
		c3,0.1,5.9-0.2,8.5-0.8c1,2.4,2.4,4.9,4.2,7.4c2.2,3.1,4.5,5.3,6.9,6.7c1.3,0.8,2.2,1.5,2.5,2.3l1.5,3.8c-1,2.4-4.3,4.9-9.6,7.6
		c-5.5,2.7-10.2,4.1-14.2,4.1c1-0.5,2.3-1.3,3.7-2.2c-1.6,0.6-3.8,1.1-6.8,1.5l-7.1,0.3c1.4-0.4,2.5-0.8,3.3-1.3l-3.4,0.5l-3.1,0.3
		c2.3-1.2,4.4-3.1,6.3-5.6c1.7-2.3,2.7-4.2,2.8-5.8c0-0.5-0.3-1.2-0.8-1.9c-0.7-0.9-1.6-1.5-2.7-1.8c-2.7-0.6-5.5-2.1-8.7-4.6
		c-2.9-2.3-4.5-4.2-4.9-5.7c-0.3-1.2-0.5-2.5-0.5-3.9c0-1.4,0.1-2.8,0.4-4.2C67,157.9,65.8,155.5,64.5,152.4"/>
	<path class="st3" d="M68.3,47.1c-0.3,1.7-0.8,3-1.6,4c0.2-0.4,0.3-1.1,0.4-2l0.6-0.9L68.3,47.1"/>
	<path class="st3" d="M94.6,193.3c1.9-0.4,3.5-0.9,4.8-1.4c-0.1,0.5-0.4,1.3-1,2.5c-0.2,0.3-0.3,1-0.3,2.1c0,0.8,0,1.6,0,2.4
		c0,0.5,0.3,1.2,1,2c0.5,0.7,1.1,1.2,1.6,1.7c0.3,0.2,0.4,0.5,0.4,0.8c0,0.3-0.1,0.6-0.3,0.9c-0.3,0.5-1,1-2.1,1.7
		c-0.4,0.2-0.8,0.2-1.2,0c-0.2-0.1-0.6-0.4-1.2-0.9c-0.9-0.8-1.8-0.7-2.8,0.1c-0.3,0.3-0.9,0.9-1.7,1.8l-1.7,2.2
		c-0.3,0.5-0.7,0.8-1.2,1l-1.2,0.1l-5.1,0.4c0.5-0.9,0.5-1.8-0.1-2.8c-0.6-1.1-1.6-1.7-3.1-1.8c-0.1-0.9-0.5-1.6-1.1-2
		c-0.5-0.4-1.2-0.6-1.9-0.7c0.1-0.7,0.7-1.4,1.6-2.1c0.8-0.6,1.6-0.9,2.2-1c0.2-0.5,0.8-1.2,1.7-2.1c0.9-0.9,1.6-1.5,2.2-1.8
		c0.5-0.2,0.9-0.7,1.2-1.3c0.3-0.5,0.4-1.1,0.5-1.7l2.9-0.4l3.6-1l-1.5,1.1c-0.7,0.4-1.2,0.7-1.6,0.9
		C90.6,194.1,92.4,193.8,94.6,193.3"/>
	<path class="st3" d="M99.3,151.6c-0.6,4.1,0.7,8.1,4,12c2.8,3.4,5.9,5.7,9.4,6.8c3.7,1.2,7.9,1.5,12.6,1c5.5-0.6,9.1-2.3,10.9-5.1
		c-0.2,0.8-0.5,1.6-0.9,2.3c-0.6,1-1.3,1.8-2.1,2.4c-0.9,0.7-1.7,1.7-2.6,3.1c-0.8,1.3-1.3,2.5-1.5,3.4c-0.2,1.2-0.3,2.7-0.4,4.7
		c0,2.4,0.2,4.1,0.6,5.1c0.6,1.5,0.8,2.7,0.6,3.7c-0.2,1.2-0.9,2.7-2.3,4.5c-1.1,1.4-1.6,3.1-1.3,4.9c-0.3-2.3-1.1-4.3-2.3-5.9
		c-1-1.4-2.2-2.4-3.6-3c-3-1.4-5.1-3.7-6.3-6.9l-1.2-3.4c-0.4-1.2-0.8-2-1-2.4c-0.3-0.7-0.8-1.2-1.3-1.7l-1.5-1.1
		c-2.9-2.2-5.5-4.9-7.8-8.3c-2.3-3.3-3.5-6-3.6-8.1c-0.1-1,0-2.2,0.3-3.6C98.3,154.7,98.7,153.1,99.3,151.6"/>
	<path class="st3" d="M110.3,204.2c0,0.4,0.2,0.7,0.4,0.9c0.3,0.2,0.8,0.2,1.3,0c1.8-0.7,3.9-2.3,6.3-4.8c2.4-2.4,4-4.5,4.7-6.2
		c-0.1,2.6-1.4,5.4-3.9,8.4c-2.3,2.8-4.4,4.5-6.5,5.2c-1.3,0.5-2.3,0.5-3,0.3c-0.8-0.3-1.1-1.1-0.9-2.3L110.3,204.2"/>
	<path class="st3" d="M116.9,215c0.7-0.3,1.2-0.4,1.6-0.4l1-0.1c0.3-0.1,0.6-0.3,0.8-0.6c0.5-0.8,1.2-1.6,2.1-2.4
		c1.2-1.2,2.3-1.9,3.1-2.2c-0.9,0.9-1.7,2-2.6,3c-0.8,1.1-1.3,1.8-1.5,2.3c-0.2,0.4-0.4,0.8-0.8,1.1c-0.4,0.3-0.8,0.5-1.2,0.5
		c-1.1,0-2.3,0.2-3.7,0.7C116.4,216.4,116.8,215.8,116.9,215"/>
	<path class="st3" d="M132.3,207.9c0,0.3,0,0.6-0.2,1l-0.7,1.1c-0.3,0.3-0.6,0.6-0.8,0.7c-0.7,0.4-1.2,0.4-1.5,0.2
		c-1.1-0.9-2.1-1.4-3-1.7l1.6-0.1c0.5,0,1,0.2,1.3,0.4c0.5,0.4,0.9,0.4,1.3,0.2c0.5-0.3,0.9-0.7,1.2-1.2c0.4-0.6,0.6-1.1,0.5-1.5
		C132.2,207.3,132.3,207.6,132.3,207.9"/>
	<path class="st3" d="M132.5,149.8c0-0.5,0.2-0.9,0.7-1.2c1.7-0.8,4.8-2.6,9.2-5.3c4.1-2.5,7.4-4.6,9.7-6.3c-1.3,1.8-4.3,4.3-9,7.4
		c-3.9,2.6-7.2,4.5-9.8,5.7C132.8,150.4,132.5,150.3,132.5,149.8"/>
	<path class="st3" d="M135,142.8c-0.4,0.3-0.7,0.2-0.8-0.3c-0.1-0.5,0.1-1,0.6-1.4l10.8-10.7l12-12.2c-0.3,1.6-3.4,5.6-9.5,12.1
		C142.3,136.6,137.9,140.8,135,142.8"/>
	<path class="st3" d="M145.7,113.6c-0.5,2.1-3,6.4-7.7,13c-4.1,5.9-7.3,10-9.4,12.3c-0.4,0.4-0.6,0.3-0.8-0.2
		c-0.1-0.5,0-0.9,0.3-1.3c1.2-1.4,4.3-5.5,9.2-12.3C142.6,117.8,145.4,114,145.7,113.6"/>
	<path class="st3" d="M122.7,119.3c0.3,0.5-0.1,3.5-1.5,8.8c-1.3,5.2-2.4,8.5-3.1,9.8c-0.2,0.4-0.4,0.4-0.7,0.1
		c-0.2-0.3-0.2-0.8,0.1-1.4c0.2-0.5,1.1-3.3,2.5-8.1L122.7,119.3"/>
	<path class="st3" d="M91.2,153.6c-2.1-2.4-3.4-4.4-4-5.9c0.9,1.5,2.6,3.4,4.9,5.5c2.3,2.1,4.2,3.5,5.7,4.2l-0.1,1.6
		C95.8,158.3,93.6,156.5,91.2,153.6"/>
	<path class="st3" d="M61,139.8l-0.4-4.2c-0.2-1.8-0.2-3.2-0.2-4c0.7,3.8,2.1,5.8,4.1,5.9c0.7,0,1.4-0.2,2-0.7
		c0.6-0.5,0.9-1.1,1-1.7c0.1-0.9-0.2-2.6-0.9-4.9c-0.6-1.9-1.3-3.6-2-5.1c0.7,0.7,1.5,2.2,2.6,4.6c0.9,2,1.5,3.7,1.9,5.1
		c-0.2,0.9-0.3,2.4,0,4.5c0.2,2,0.5,3.5,0.9,4.5c-1.3,0.6-2.9,0.6-4.8-0.2C63.1,142.9,61.7,141.6,61,139.8"/>
	<path class="st3" d="M81.2,126.6l1.5-7l0.6-0.2c0,0.6-0.2,2.3-0.6,5.1c-0.4,2.8-0.8,4.7-1,5.7l1.1-0.9l1.3-0.9
		c0.1,2.5-0.4,5.2-1.5,8.2c-1.1,3-2.3,5-3.7,6c-1.6,1.1-3.4,1.8-5.5,2.1c-1.9,0.2-3.1,0-3.5-0.7c-0.7-1.3-1-3.2-1-5.7
		c0-2.3,0.3-4,0.7-5.1c0,1.5,0.3,2.8,0.8,4c0.7,1.4,1.7,2.2,2.9,2.2c1.1,0,2.2-0.6,3.3-1.7c0.9-0.9,1.8-2.2,2.6-3.7
		C79.7,132.9,80.3,130.6,81.2,126.6"/>
	<path class="st3" d="M137.3,151.8c0.4,0.7,0.9,2,1.5,3.8c0.5,1.6,0.9,2.8,1.1,3.5c0.3,1,1,1.5,2.1,1.5l12.3,0.2
		c7,0.1,11.2,0.2,12.8,0.3c1.5,0.1,3.3,0,5.4-0.1l3.8-0.3l3.4,0.1l3.4,0.3l5.5-0.3l6.1-0.8c5.4-0.8,11.8-1.5,19.4-2.3
		c10.1-1,17.4-1.4,21.9-1.2c-1.8,0.4-6.4,1.7-13.7,4l-13.8,4.3c3.6,0.8,6.1,1.6,7.4,2.3c-3,0.2-7.8,0.3-14.5,0.3
		c-7.4,0.1-12.5,0-15.2-0.2c-1.5-0.1-2.7-0.4-3.4-0.8c-0.5-0.3-1.5-0.5-3-0.6c-1.6-0.2-2.9-0.2-3.9,0l-3.2,0.3l-3.2-0.1l-13.5-1.3
		l-15.5-1.6c0.3,1.4,0.3,2.9,0.1,4.4c-0.2,2.1-0.9,3.7-1.9,5c1.2,0,5.1,0.5,11.6,1.5c7.1,1.1,14.4,2.4,21.7,3.8
		c20.4,4,32.2,7.2,35.2,9.8l-6.6-0.8l-10.9-1.6c-5.3-0.8-13.1-2-23.2-3.8c-11.5-2.1-19.2-3.6-23-4.7c-2.3-0.6-4.6-1-7.1-1
		c-3.2,0-5.8,0.5-7.6,1.7c0.4-1.2,1-2.4,1.7-3.7c0.9-1.5,1.8-2.6,2.8-3.3c1.1-0.8,2.1-2.6,2.8-5.2c0.8-2.9,1-5.8,0.6-8.5
		c-0.5-3.1-1.5-5.5-3-7.2l1.3-0.5l1.1,1.4L137.3,151.8"/>
	<path class="st3" d="M212.3,147.5c-0.3,0.5-1.1,1.1-2.4,2c-1.3,0.8-2.6,1.5-3.9,2.1H203c1.2-0.4,2.8-1,4.7-1.9L212.3,147.5"/>
	<path class="st3" d="M197.6,147.9c-3.7,0.4-6.3,0.9-8,1.3c-0.2-0.5-0.7-1-1.5-1.7c1.9-0.4,4.1-0.8,6.6-1.2l6-0.4
		c1.1,0.1,2.5-0.1,4.2-0.5c2.1-0.5,3.5-0.8,4.4-0.9c-0.7,0.3-1.5,0.7-2.5,1.3c-1.1,0.6-1.8,1.1-2.1,1.5L197.6,147.9"/>
	<path class="st6" d="M79.6,206.2c-1.4,0.2-3.2,0.8-5.5,2c-2.3,1.2-4.3,2.5-5.9,3.9l-3.7,0.5c-1.3,0.1-2.4,0.1-3.1,0.1
		c1.1-0.4,4.1-1.9,9.1-4.5c4.8-2.3,7.8-3.4,9-3.1L79.6,206.2"/>
	<path class="st6" d="M80.5,211.6l-6,0.3l-6.9,0.8c1.8-1,4.4-1.9,7.7-2.7c3.6-0.9,6.2-1.1,7.8-0.7c0.1,0.5-0.1,1-0.5,1.5
		C82,211.3,81.4,211.6,80.5,211.6"/>
	<path class="st6" d="M98.6,206.2c0.6-0.3,1.2-0.7,1.7-1.2c0.5-0.4,0.7-0.9,0.9-1.3c0.8,0.9,1.6,2.6,2.5,5.3l-2.4-1.2
		C99.9,207.2,99.1,206.6,98.6,206.2"/>
	<path class="st6" d="M106.9,214.8c-2.5,1.6-4.4,3-5.5,4.3c-1.1,0.5-2.5,0.9-4.3,1.2c-1.8,0.3-3.1,0.4-4.1,0.3
		c2.1-1.3,5.3-3.1,9.4-5.4c4.8-2.6,7.9-4,9.1-4.2l0.7,1.1C111,212.4,109.2,213.3,106.9,214.8"/>
	<path class="st6" d="M107.4,219.3c-2.9,0.5-5.2,0.8-6.9,0.8c2.1-1.1,4.8-2.3,8-3.6c3.6-1.5,6.2-2.4,7.8-2.7
		c0.4,0.7,0.5,1.4,0.2,2.1c-0.3,0.8-1,1.4-2,1.7C112.6,218.1,110.2,218.7,107.4,219.3"/>
	<path class="st3" d="M127.4,54.7c-0.2,0.8-1.2,1.6-3,2.5c-1.8,0.8-3.3,1.2-4.6,1.1l-3.5-0.4l-3.1-0.3l-2.5,0.2
		c-1.1,0.1-2,0.3-2.7,0.6c-0.1-1-0.2-1.7-0.2-2l1.3,0.2l1.4-0.1l2.9-0.1l3.7,0.3c1.2,0.2,2.9,0.2,5.1,0
		C125.1,56.2,126.7,55.6,127.4,54.7"/>
	<path class="st6" d="M124.4,50.1c-1.2-1.3-3.2-2.1-5.9-2.2c-2.6-0.2-4.7,0.3-6.3,1.3c-0.7,0.5-1.3,0.6-1.8,0.4
		c-0.5-0.2-0.4-0.8,0.3-1.7c0.1,0.5,0.5,0.6,1.3,0.2c2.5-1.1,5-1.5,7.5-1.3c2.4,0.2,4.2,0.9,5.6,2.2c0.2,0.2,0.5,0.4,0.6,0.4
		c0.2,0.1,0.4,0.1,0.6,0l4.2-1c0.7-0.1,1-0.5,1-1.1c0.8,1.1,0.8,1.8-0.3,2.1l-5,1.3l-1,0C124.9,50.6,124.7,50.4,124.4,50.1"/>
	<path class="st6" d="M19,79.5c0.4-0.9,1-1.5,1.9-1.8c1-0.3,1.9-0.2,2.7,0.4l1.3,1.1c0.7,0.6,1.1,1,1.2,1.3c0.1,0.2,0.3,0.3,0.4,0.3
		l0.5-0.1l1.3-0.5l1.2-0.7c0.5-0.4,0.7-0.8,0.6-1.3c0.3,0.3,0.4,0.7,0.5,1.1c0.1,0.5-0.1,0.8-0.4,1l-1.7,0.9L27.2,82
		c-0.6,0.2-1.1,0.1-1.4-0.3l-1.3-1.4L23,79c-0.5-0.4-1-0.5-1.6-0.3c-0.6,0.2-1,0.5-1.2,0.9L19,79.5"/>
	<path class="st3" d="M26.2,84.6l1.3-0.1c0.5-0.2,0.9-0.4,1.2-0.8l1.7,0.8c-0.3,0.6-1,1-2,1.4c-1,0.4-2,0.4-2.8,0.2
		C26,85.7,26.2,85.2,26.2,84.6"/>
	<path class="st6" d="M108.2,57.8c0.9-0.3,2-0.8,3.4-1.5l1.5,0c-0.9,1.4-2.7,2.8-5.5,4.3c-2.4,1.3-4.2,2-5.5,2.2l3.2-2.5L108.2,57.8
		"/>
	<path class="st3" d="M103.3,58.9l1.5,0.1c-1.1,1.5-1.9,2.7-2.6,3.5L103.3,58.9"/>
	<path class="st3" d="M158.5,165.2c8.6,0.9,13.9,1.2,15.9,0.9c3.4-0.5,6.4-0.3,9.2,0.8c0.7,0.3,2.4,0.5,4.9,0.6
		c1.8,0.1,3.6,0.1,5.5,0.1c-0.4,2.2-1.1,4.5-2.1,6.9c-1.3,3.4-2.7,5.6-4.2,6.7c-5.3-1.2-13.1-2.7-23.3-4.6
		c-13-2.4-21.5-3.7-25.4-3.8c0.8-1.3,1.4-2.8,1.8-4.5c0.4-1.9,0.4-3.6-0.1-5l10.2,1L158.5,165.2"/>
	<path class="st0" d="M209,167.4l6.2-0.1l0.1-0.4c-0.6-0.3-1.6-0.7-3-1.1c-1.2-0.4-2.5-0.7-3.8-1c0.6-0.1,2.2-0.5,4.8-1.3l6.3-1.9
		c-1,1-2.2,2.9-3.7,5.5c-0.3,0.6-0.8,1.2-1.3,1.9l-1.1-0.1c-0.3-0.1-0.6-0.3-0.8-0.5c-0.2-0.2-0.3-0.2-0.6-0.2
		c-0.3,0-0.5,0.2-0.6,0.3c-0.2,0.3-0.6,0.5-1.2,0.6l-1.6,0.2c-0.4,0-0.7-0.1-0.7-0.3c0-0.2,0.1-0.3,0.3-0.5
		C208.7,168.5,208.9,168.1,209,167.4"/>
	<path class="st3" d="M147.6,165.9c0.6,0,1,0.2,1.2,0.4l0.6,0.5c0.3,0.2,0.6,0.3,1,0.3l12.6,0c0.4,0,0.8,0.1,1,0.2
		c0.3,0.1,0.5,0.3,0.8,0.7l0.8,1.1c0.3,0.5,0.6,0.8,0.8,1.1c0.5,0.6,1.2,0.9,2,1l7.6,0.7l8,0.6l1.5-0.1c0.4-0.1,0.7-0.3,1-0.6
		c0.4-0.4,1.2-0.9,2.2-1.6c0.6-0.4,1.3-0.6,2-0.5c1.6,0.3,2.6,0.5,3.1,0.7c0.3,0.1,0.5,0.3,0.6,0.5c0.2,0.3,0.2,0.6,0.1,1
		c-0.1,0.5-0.5,1.4-1.1,2.8c-0.7,1.6-1.1,2.6-1.4,3l-0.6,0.7c-0.3,0.2-0.6,0.3-0.8,0.3c-1.3,0.1-2.3,0.1-3.1,0
		c-0.8-0.1-1.4-0.4-1.8-1c-0.2-0.3-0.5-0.5-1-0.7c-0.5-0.2-0.9-0.3-1.5-0.3l-9.5-0.4c-4.8-0.3-7.7-0.6-8.7-0.9l-1-0.4
		c-0.3-0.2-0.6-0.5-0.7-0.8c-0.2-0.5-0.5-0.9-0.8-1.1c-0.4-0.4-1-0.6-1.6-0.6l-6.6-0.2l-6.4-0.2l-1.1-0.1c-0.4-0.1-0.7-0.4-0.9-0.8
		c-0.2-0.4-0.4-0.8-0.6-0.9c-0.2-0.2-0.6-0.3-1-0.4c-1-0.1-2.3-0.1-3.8-0.1c0.3-1.2,0.5-2.5,0.5-4l3.7,0.1L147.6,165.9"/>
	<path class="st6" d="M131.6,209.8c0.4,0.4,1,1.1,1.7,2.3c0.6,1,1.1,1.8,1.4,2.5l-4.5-3.7l0.8-0.5L131.6,209.8"/>
	<path class="st0" d="M140.6,154.5l-0.8-0.5c-0.3-0.2-0.5-0.3-0.6-0.5c0.6-0.4,1.6-0.7,3-1c1.4-0.3,2.6-0.4,3.7-0.3
		c0.8,0,1.7-0.2,2.7-0.8c0.7-0.4,1.7-0.7,3-1c1.3-0.3,2.6-0.5,3.7-0.5l3.8-0.3c1.4-0.2,2.4-0.4,3-0.7l2.6-1.1c1.1-0.4,2-0.8,2.7-1
		c2.7-0.9,4.4-1.3,5-1.5c0.8-0.1,1.3-0.4,1.6-0.8c0.2-0.2,0.5-0.4,0.9-0.6l1.4-0.3l3.5-0.3l3.6-0.2c0.4,0,0.7,0.1,1,0.3
		c0.6,0.4,1.1,0.9,1.5,1.4c0.1,0.2,0.2,0.4,0.1,0.5c0,0.1-0.1,0.2-0.3,0.2l-3.3,0.1l-3.4,0.2l-1.8,0.2c-0.4,0.1-0.9,0.3-1.4,0.6
		c-0.5,0.3-1.2,0.4-2,0.5l-3.1,0.4c-1.1,0.2-2,0.4-2.8,0.7c-0.9,0.3-2.6,0.9-5.2,2c-0.6,0.3-1.7,0.5-3.3,0.7l-4.1,0.3l-3.5,0.3
		c-1.2,0.2-2.2,0.5-2.8,0.9c-0.5,0.3-1,0.5-1.6,0.7l-1.4,0.2l-3,0.3C142.2,153.9,141.3,154.2,140.6,154.5"/>
	<path class="st3" d="M131.1,91.7l-4.6,0.3c-2.8,0-6.3,2-10.7,5.9c-4.1,3.7-7,7.3-8.5,10.7c-0.5,1.2-1.2,2.2-2.1,3.1
		c-0.8,0.8-1.6,1.4-2.5,1.8c-0.8,0.4-1.6,1-2.3,1.8c-0.7,0.8-1.3,1.8-1.9,2.9c0.3,1.3,1.5,3.9,3.4,7.6c2,3.9,3.4,6.3,4.3,7.3
		c-1.6-0.8-3.4-2.9-5.2-6.2c-1.4-2.4-2.4-4.8-3.3-7.3c0.2-2,0.8-3.7,1.7-5c0.8-1.1,1.7-1.9,2.8-2.4c0.6-0.3,1.4-1.1,2.4-2.5
		c0.9-1.2,1.5-2.3,2-3.2c1.5-2.9,3.7-5.8,6.6-8.8c3.1-3.1,6.3-5.4,9.5-7c1.1-0.5,2.4-0.9,4.1-1.1l5.1-0.3c1,0,3.1-0.6,6.1-1.8
		c3.3-1.2,6.6-2.7,9.8-4.3c2.6-1.3,5.6-3,9-5.1l6.2-3.9l1.4,1.5c-0.4,0.3-2.7,1.6-6.7,4.1l-8.5,5.2c-1.3,0.8-3.6,1.8-6.8,3.1
		c-3.3,1.4-5.9,2.3-7.7,2.7L131.1,91.7"/>
	<path class="st3" d="M136.9,157c0.4,2.3,0.4,4.7,0,7c-0.5,2.8-1.5,4.9-3.1,6.5c-0.8,0.8-1.4,1.4-1.7,1.7c-0.8,0.9-1.5,2.1-2.3,3.5
		c-0.8,1.6-1.2,3.8-1.2,6.8c0,2.8,0.4,4.9,1.1,6.3c0.4,0.8,0.4,1.8,0.1,2.9c-0.3,0.8-0.8,1.8-1.5,3c0.5-1.1,0.7-2.3,0.6-3.7
		c-0.1-1.1-0.3-1.9-0.6-2.5c-0.9-1.6-1.2-4-1-7.1c0.2-2.3,0.5-4.4,1.1-6.3c0.6-2,2.3-4.3,5.2-7.1c0.9-0.9,1.7-2.4,2.3-4.5
		C136.6,161.5,136.9,159.3,136.9,157"/>
	<path class="st3" d="M108.7,76.8c-1.4,0.8-3.5,1.5-6.3,2l-6.2,0.6c-1.5,0-2.6-0.4-3.4-1.3c-0.8-0.9-1.2-2.1-1.1-3.5
		c0.3,1,0.8,1.9,1.6,2.6c0.9,0.8,1.8,1.2,2.9,1.1c2.5-0.1,5.1-0.5,7.6-1.1c2.5-0.6,4.4-1.3,5.5-2L108.7,76.8"/>
	<path class="st3" d="M85.7,69.7c1.1,0.5,2.2,0.7,3.2,0.6c1.1-0.2,1.9-0.7,2.4-1.6l0.2,1.3c-0.5,0.6-1.2,1-2,1.3
		c-0.8,0.2-1.4,0.2-1.9,0c-0.3-0.2-0.7-0.4-1-0.8L85.7,69.7"/>
	<path class="st3" d="M113.3,182.4c-1.4,2.4-4.4,4.9-9.1,7.4c-5,2.6-9.6,4-13.8,4.1c3.9-1,8-2.7,12.5-5.1c5.2-2.8,8.5-5.4,9.7-7.8
		L113.3,182.4"/>
	<path class="st3" d="M97.5,194.1c0.2-0.2,0.4-0.8,0.6-1.6l1.2-0.5c0,0.7-0.3,1.6-1,2.7c-0.2,0.3-0.3,1-0.3,2.2c0,0.9,0,1.7,0.1,2.3
		c0,0.4,0.4,1,1,1.8l1.6,1.8c0.4,0.4,0.5,0.8,0.3,1.3c-0.2,0.4-0.5,0.6-0.9,0.9c0.1-0.3,0.2-0.6,0.1-0.9c-0.1-0.3-0.2-0.6-0.4-0.8
		l-1.8-1.9c-0.2-0.2-0.5-0.6-0.7-1.1c-0.2-0.4-0.3-0.8-0.4-1.1c0-0.3,0-0.8,0-1.7l0.1-1.7C97.1,195,97.3,194.4,97.5,194.1"/>
	<path class="st6" d="M100.4,204.9l0.5-0.5l0.3-0.6c0.3,0.3,0.7,1.1,1.3,2.2c0.6,1.2,1,2.2,1.2,3.1l-1.5-2L100.4,204.9"/>
	<path class="st3" d="M69.6,75.2l0.4,0.6l0.3,0.8c0,0.2,0.1,0.2,0.3,0l0.6-0.9c0.1-0.3,0.3-0.3,0.6-0.1c0.4,0.4,0.8,0.8,1.1,1.3
		l0.2,0.2c0.1,0,0.1-0.1,0.1-0.2c0-0.8-0.1-2.1-0.3-3.6l0.6,0c0.2,1,0.4,2.2,0.6,3.7c0.2,1.6,0.2,2.6,0.1,3.2
		c-0.3-0.5-0.7-1.1-1.1-1.7c-0.5-0.6-1-1.1-1.4-1.4c-0.7,1.7-1.7,2.8-2.9,3.4c0.1-0.7,0.2-1.5,0.2-2.3c0-0.8-0.1-1.5-0.2-2.1
		L69.6,75.2"/>
	<path class="st5" d="M216.1,167.8c-0.6,1-1.9,2.4-3.9,4.3c-1.7,1.6-3.3,2.8-4.7,3.7c-1.2,0.8-2.4,1.3-3.6,1.6l-2.9,0.2l-4.6-0.3
		c-2.1-0.1-3.6-0.1-4.5-0.1l0.3-0.8c1,0,2.5,0,4.4,0.1l4.4,0.3c0.9,0.1,1.9,0,3-0.3c1.1-0.3,2.1-0.8,3-1.4c1.5-1,3-2.2,4.7-3.7
		c1.8-1.7,3-3,3.6-3.9l1.7-2.9c0.8-1.2,1.5-2.1,2.1-2.8l1.4-0.3c-0.7,0.6-1.6,1.6-2.5,3.1C217.6,165.2,216.9,166.3,216.1,167.8"/>
	<path class="st5" d="M147.5,153c0.6-0.1,1.1-0.4,1.6-0.6c0.6-0.4,1.6-0.7,2.8-0.9c1.3-0.2,2.4-0.4,3.6-0.3l4-0.3
		c1.6-0.2,2.7-0.5,3.3-0.7c2.9-1.2,4.7-1.9,5.2-2c0.8-0.3,1.8-0.5,2.8-0.7l3.1-0.4c0.9-0.1,1.5-0.2,1.9-0.5c0.5-0.3,1-0.5,1.5-0.6
		l1.8-0.2l6.5-0.3l0.2-0.1c0-0.1,0-0.2-0.1-0.3c-0.5-0.5-0.9-1-1.4-1.3c-0.3-0.2-0.5-0.3-0.9-0.3l-3.5,0.2l-3.5,0.3
		c-0.5,0-0.9,0.2-1.3,0.3c-0.4,0.2-0.6,0.3-0.8,0.5c-0.4,0.5-1,0.8-1.8,0.9l-2.2,0.5l-2.4,0.7c-0.7,0.2-1.6,0.6-2.9,1.1l-2.8,1.2
		c-0.6,0.3-1.6,0.5-3.1,0.7l-3.9,0.3l-3.7,0.5c-1.3,0.3-2.3,0.6-2.9,0.9c-1.1,0.6-2.1,0.9-2.8,0.8c-1,0-2.2,0.1-3.6,0.4
		c-1.4,0.3-2.4,0.6-2.9,1l-0.6-0.5c0.6-0.4,1.7-0.8,3.2-1.1c1.5-0.3,2.7-0.4,3.9-0.4c0.7,0,1.6-0.2,2.6-0.8c0.7-0.4,1.7-0.7,3-1
		c1.4-0.3,2.6-0.5,3.8-0.5l3.8-0.3c1.4-0.2,2.4-0.4,2.9-0.7c0.7-0.3,1.6-0.7,2.8-1.2c1.3-0.5,2.3-0.9,2.9-1.1l2.4-0.7
		c1-0.3,1.8-0.5,2.2-0.5c0.7-0.1,1.2-0.4,1.5-0.7c0.4-0.5,1.2-0.8,2.5-1l3.5-0.3l3.6-0.2c0.5,0,0.9,0.1,1.2,0.4
		c0.6,0.4,1.1,0.9,1.6,1.5c0.2,0.3,0.3,0.5,0.2,0.8c-0.1,0.3-0.3,0.4-0.7,0.4l-3.1,0.1l-3.5,0.2l-1.8,0.3c-0.4,0.1-0.8,0.3-1.3,0.6
		c-0.5,0.3-1.2,0.4-2.1,0.5L171,148l-2.8,0.7c-0.9,0.3-2.7,1-5.2,2.1c-0.7,0.3-1.8,0.5-3.4,0.8l-4.1,0.3L152,152
		c-1.2,0.2-2.1,0.5-2.7,0.8c-0.5,0.3-1.1,0.5-1.7,0.7l-1.4,0.2l-2.9,0.3c-1,0.2-1.8,0.5-2.5,0.8l-0.6-0.5c0.7-0.4,1.6-0.7,2.8-0.9
		l3.2-0.3L147.5,153"/>
	<path class="st5" d="M147.6,165.6c0.7,0,1.3,0.4,1.9,0.9c0.2,0.2,0.5,0.3,1,0.3l12.7,0.1c0.5,0,0.9,0.2,1.3,0.4
		c0.3,0.2,0.5,0.5,0.8,0.9c0.4,0.7,0.9,1.3,1.4,1.9c0.4,0.4,1,0.6,1.7,0.7l7.9,0.7l8.1,0.6c0.6,0,1.2-0.2,1.8-0.6l1.1-0.8l1.2-0.9
		c0.7-0.4,1.4-0.6,2-0.5l1.9,0.4l1.7,0.5c0.5,0.2,0.7,0.9,0.5,1.9c-0.1,0.7-0.4,1.6-1,2.8c-0.5,1.2-1.1,2.2-1.6,3.2
		c-0.4,0.6-0.9,0.9-1.6,0.9c-1.3,0.1-2.5,0.1-3.6,0c-0.6,0-1.1-0.2-1.4-0.6c-0.8-1-1.4-1.5-2-1.5l-9.2-0.5l-9.1-0.8
		c-1-0.2-1.7-0.5-2-0.9c-0.3-0.7-0.6-1.2-0.9-1.5c-0.3-0.3-0.6-0.5-1.1-0.5l-13.6-0.4c-0.7,0-1.3-0.2-1.5-0.4
		c-0.2-0.2-0.5-0.6-0.8-1.1c-0.2-0.4-0.5-0.6-0.9-0.7l-4.2-0.2l0.3-0.7l4,0.3c0.5,0.1,0.9,0.4,1.2,0.9l0.7,1
		c0.2,0.2,0.6,0.4,1.3,0.4l13.5,0.4c0.3,0,0.6,0.1,0.9,0.3c0.3,0.2,0.5,0.3,0.7,0.5l0.9,1.4c0.3,0.4,0.8,0.6,1.6,0.7l9.1,0.8
		l9.2,0.5c0.5,0,0.9,0.1,1.2,0.4c0.3,0.2,0.7,0.6,1.2,1.1l0.4,0.3l0.6,0.1l1.9,0.1l1.7-0.1c0.3,0,0.6-0.2,0.8-0.6
		c0.6-1,1.1-2,1.6-3.1c0.5-1.2,0.8-2.1,0.9-2.7c0.1-0.6,0-1-0.2-1.1l-1.5-0.5c-0.8-0.2-1.4-0.4-1.7-0.4l-0.9,0
		c-0.3,0-0.6,0.2-0.9,0.3c-0.2,0.1-0.6,0.4-1.2,0.8l-1,0.8c-0.7,0.5-1.4,0.7-2.1,0.7l-8.2-0.5l-8-0.7l-1.2-0.3
		c-0.4-0.1-0.7-0.4-0.9-0.6c-0.5-0.6-1-1.3-1.4-2.1c-0.4-0.7-0.9-1.1-1.5-1.1l-12.7-0.1c-0.7,0-1.2-0.2-1.5-0.5
		c-0.2-0.2-0.4-0.4-0.7-0.5c-0.2-0.1-0.5-0.2-0.8-0.2c-2.1-0.1-4.3-0.2-6.5-0.2l0-0.7L147.6,165.6"/>
	<path class="st5" d="M140.9,164.4l3.1,0.1c0.3,0,0.5,0.1,0.5,0.3s-0.2,0.2-0.5,0.2c-0.7-0.1-1.7-0.1-3,0L140.9,164.4"/>
	<path class="st5" d="M139.9,170.8l2.8,0.1c0.3,0,0.4,0.1,0.4,0.3c0,0.1-0.1,0.2-0.5,0.2c-1.4-0.1-2.4-0.1-3.1,0L139.9,170.8"/>
	<path class="st5" d="M168.3,150.8l-3.9,0.7c-0.3,0.1-0.5,0-0.6-0.1c0-0.1,0.1-0.2,0.5-0.3l3.4-0.7L168.3,150.8"/>
	<path class="st5" d="M168.3,168c-1.2-0.1-2.4-0.1-3.6,0l-0.4-0.6c1.6-0.1,3,0,4,0.1c0.3,0,0.4,0.1,0.4,0.3
		C168.8,168,168.6,168.1,168.3,168"/>
	<path class="st5" d="M171.8,170l-3-0.1c-0.3,0-0.4-0.1-0.4-0.2c0-0.1,0.1-0.2,0.4-0.3c0.7,0,1.8-0.1,3.1,0L171.8,170"/>
	<path class="st5" d="M159.2,174c1,0,1.9-0.1,2.4,0c0.3,0,0.4,0.1,0.4,0.2c0,0.1-0.1,0.2-0.4,0.3l-2.8,0.2L159.2,174"/>
	<path class="st5" d="M186.7,169.8l-3.3-0.1l0.1-0.6l3.2,0.2c0.3,0,0.5,0.1,0.5,0.2C187.2,169.7,187.1,169.8,186.7,169.8"/>
	<path class="st5" d="M180.4,177.4l3.1,0.3c0.3,0.1,0.4,0.2,0.4,0.3c0,0.1-0.2,0.2-0.5,0.2L180,178L180.4,177.4"/>
	<path class="st5" d="M194.3,167.6c-0.1,0.9-0.3,1.9-0.6,2.9l-0.8-0.2c0.2-1,0.4-1.9,0.6-2.8L194.3,167.6"/>
	<path class="st5" d="M189.2,149.2c-1.2-1.5-2.5-2.6-3.8-3.4l0.8-0.3c1.4,0.9,2.6,2.1,3.8,3.6L189.2,149.2"/>
	<path class="st5" d="M190.2,178.8c-0.7,1-1.4,1.9-2.2,2.7l-0.9-0.2c0.8-0.8,1.4-1.6,2-2.4L190.2,178.8"/>
	<path class="st5" d="M69.4,75.7c-1.2,1.2-2.6,2.2-4.1,3.1c-1.7,1.1-3.1,1.7-4.3,1.8c-1.5,0.2-3.1,0.1-4.9-0.3
		c-2-0.5-4.1-1.3-6.3-2.6c-0.5-0.3-0.7-0.7-0.8-1.2c-0.1-0.6,0.1-1.2,0.5-1.8c0.6-1,1.5-2.1,2.7-3.4c1.2-1.4,2.4-2.6,3.4-3.5
		c0.4-0.3,0.6-0.4,0.7-0.4c0.1,0.1,0,0.3-0.4,0.6c-0.9,1-2,2.2-3.2,3.7c-1.3,1.6-2.1,2.7-2.6,3.5C50,75.6,49.9,76,50,76.3
		c0,0.3,0.2,0.5,0.4,0.7c4.2,2.4,7.8,3.4,10.6,2.9c1-0.1,2.3-0.7,4-1.7c1.5-0.9,2.9-1.9,4.1-2.9c0.3-0.2,0.5-0.3,0.6-0.2
		C69.8,75.2,69.7,75.4,69.4,75.7"/>
	<path class="st5" d="M80.7,74.5c0.1,2.6,0.5,5.2,1.1,7.8l-0.5,0.9c-0.6-2.4-1.1-5.1-1.3-8c-0.3-3.9,0-6.6,0.8-8.1
		c1.3-2.3,2.2-4.4,2.9-6.2l0.7,0.1c-0.7,2-1.6,4.2-2.9,6.5C80.8,68.8,80.5,71.1,80.7,74.5"/>
	<path class="st5" d="M83.2,60.7c-0.5,1.4-1,2.5-1.7,3.4c-0.2,0.3-0.4,0.4-0.5,0.3c-0.1-0.1-0.1-0.3,0.1-0.6c0.5-0.9,1-1.9,1.4-3.2
		L83.2,60.7"/>
	<path class="st5" d="M66.6,41.3c0.5,1.2,0.8,2.6,0.9,4.4c0.1,1.8-0.1,3.5-0.5,5c-0.1,0.4-0.2,0.6-0.4,0.6c-0.1,0-0.2-0.2-0.1-0.7
		c0.5-2.7,0.5-5.3-0.1-7.9c-0.4,1.7-1.6,4-3.5,6.8c-1.1,1.6-2.7,3.6-4.6,5.9c-0.7,0.9-1.3,2-1.8,3.3c-0.6,1.6-0.9,3-0.9,4.3
		c0,1.9,0,3.7-0.1,5.3L55,68.8l0.1-3.3L55,63c0-1.4,0.2-2.9,0.8-4.5c0.5-1.5,1.2-2.7,2-3.6c2.2-2.6,3.8-4.8,4.9-6.4
		c2.1-3.1,3.2-5.4,3.4-7c0-0.2,0.1-0.3,0.2-0.4C66.4,41,66.5,41.1,66.6,41.3"/>
	<path class="st5" d="M67.9,46.5c0-0.2,0.1-0.4,0.2-0.4c0.1,0,0.2,0.1,0.2,0.3c0.2,0.8,0.3,1.6,0.3,2.5c0,1.1-0.1,2.1-0.4,3
		l-0.8,0.7c0.5-1.6,0.7-3.2,0.6-4.8c-0.2,0.5-0.6,1.1-1.1,1.8l0-0.9C67.5,48,67.8,47.3,67.9,46.5"/>
	<path class="st5" d="M68.3,48c2.4-2.8,4.7-4.9,6.9-6.3c2.2-1.4,4.1-2,5.9-1.8c1.2,0.1,2.5,1,3.7,2.5c1.1,1.3,1.9,2.9,2.5,4.7
		l-0.7,0.2c-0.6-1.7-1.3-3.1-2.2-4.3c-1.1-1.4-2.2-2.2-3.3-2.3c-1.6-0.2-3.6,0.4-5.8,1.9c-2.2,1.5-4.5,3.6-6.8,6.4L68.3,48"/>
	<path class="st5" d="M81.9,39c0.1,1.8-0.2,4-1,6.6c-0.8,2.8-1.8,4.7-2.9,5.7c-0.3,0.2-0.5,0.3-0.6,0.2c-0.1-0.1,0-0.3,0.2-0.6
		c0.9-0.8,1.7-2.4,2.4-4.7c0.7-2.2,1.2-4.2,1.3-5.9c-0.8,1.5-2.7,3.5-5.7,6.2c-2.3,2-4.5,3.9-6.8,5.5c-2.7,2-4.8,4.1-6.3,6.4
		c-1.5,2.2-2.6,5.1-3.5,8.5c-0.1,0.4-0.2,0.5-0.3,0.5c-0.1,0-0.1-0.2-0.1-0.6c0.8-3.6,1.9-6.6,3.4-8.9c1.5-2.3,3.6-4.4,6.4-6.5
		c2.7-2,5.3-4.1,7.8-6.3c3-2.7,4.7-4.8,5.2-6.1c0.1-0.2,0.2-0.4,0.3-0.3C81.8,38.6,81.9,38.8,81.9,39"/>
	<path class="st5" d="M77.3,53.6c1.8-1.4,2.9-3,3.3-4.7c-0.5,0.5-1.2,1-2,1.4l0.3-0.8c0.7-0.4,1.4-1,2-1.7c0.1-0.1,0.2-0.2,0.3-0.2
		c0.1,0,0.1,0.1,0.1,0.3c0,1-0.3,2.1-0.9,3.3c-0.7,1.2-1.6,2.2-2.7,2.9c-0.3,0.2-0.5,0.2-0.6,0.1C76.9,54,77,53.9,77.3,53.6"/>
	<path class="st5" d="M99.5,47.3c-1-0.8-2.3-1.1-4.2-1.1c-1.7,0.1-4,0.4-6.7,1c-2.9,0.6-5.5,1.3-7.8,2.2l0.1-0.7
		c2.5-0.9,5-1.6,7.8-2.3c2.8-0.7,5-1,6.6-1.1l2.2,0.2c1,0.2,1.8,0.6,2.4,1c0.6,0.5,1.4,1.3,2.4,2.3c1,1.2,1.6,2,1.7,2.4
		c0.2,0.5,0.2,1.5,0.3,2.9c0,1.5-0.1,2.7-0.3,3.3c-0.8,2.6-1.5,4.5-2.1,5.5c-0.8,1.3-0.9,2.4-0.4,3.3c0.5,0.9,1.4,1.1,2.7,0.6
		c2.1-0.8,3.9-1.6,5.3-2.6l0.2,0.8c-1.5,1-3.2,1.8-5.2,2.6c-1.8,0.7-3,0.4-3.7-0.8c-0.7-1.2-0.6-2.6,0.4-4.3c0.6-1,1.3-2.8,2.1-5.3
		c0.2-0.6,0.3-1.7,0.3-3.1c0-1.3-0.1-2.2-0.2-2.7c-0.1-0.4-0.7-1.1-1.6-2.1C100.9,48.6,100.2,47.9,99.5,47.3"/>
	<path class="st5" d="M104.6,59.4l-1.5-0.1l0.1-0.6l1.8,0.1L104.6,59.4"/>
	<path class="st5" d="M108,60.4l0.7-0.4c0.2,1,0.5,1.8,0.8,2.7c0.8,2,1.2,4.1,1.2,6.3c0.1,2.8-0.5,5.4-1.6,7.9
		c-1.3,2.9-3.7,7.4-7.4,13.7c-4,7-7.4,12.4-10.1,16.2c-0.7,0.9-1.1,1.6-1.3,2c-0.3,0.6-0.4,1.2-0.3,2c0.1,2.4-0.2,4.9-0.9,7.3
		c-0.8,2.6-1.9,4.7-3.3,6.2c-0.3,0.3-0.5,0.4-0.6,0.3c-0.1-0.1,0-0.3,0.2-0.6c1.3-1.8,2.3-3.9,3-6.4c0.6-2.3,0.9-4.6,0.8-6.8
		c0-0.8,0.1-1.5,0.3-2.2c0.2-0.6,0.7-1.3,1.3-2.3c2.7-3.8,6.1-9.1,10.1-16.1c3.6-6.2,6-10.8,7.3-13.7c1.1-2.4,1.6-4.8,1.6-7.4
		c0-2.2-0.4-4.3-1.1-6.2C108.5,62.2,108.2,61.3,108,60.4"/>
	<path class="st5" d="M120,34.8c-0.1,0-0.2-0.1-0.2-0.3c-0.2-0.7-0.6-1.1-1.3-1.2c-0.8-0.2-1.6,0.1-2.6,0.7
		c-0.6,0.4-1.7,1.3-3.3,2.8c-1.8,1.6-3,2.9-3.8,3.9c-0.3,0.4-0.5,0.9-0.4,1.3c0.1,0.4,0.3,0.9,0.7,1.7c0.4,0.7,0.5,1.4,0.5,2.2
		c0,0.8-0.3,1.7-0.8,2.7c-0.3,0.5-0.4,1.3-0.6,2.5l-0.8,0.3c0.1-1.5,0.3-2.5,0.6-3.1c0.5-1,0.8-1.8,0.8-2.4c0.1-0.7,0-1.3-0.4-1.9
		c-0.5-0.8-0.7-1.5-0.8-2c-0.1-0.6,0.1-1.2,0.5-1.8c0.7-0.9,2.1-2.3,4-4c1.6-1.5,2.7-2.5,3.3-2.9c1.1-0.8,2.2-1,3.3-0.7
		c1,0.3,1.5,0.9,1.5,1.9C120.2,34.7,120.1,34.8,120,34.8"/>
	<path class="st5" d="M131.6,26.8c-0.6,0.7-1.1,1.3-1.3,1.9c-0.3,0.6-0.5,1-0.4,1.3c0.1,0.6-0.2,0.9-0.9,0.9c-0.1,0-0.3,0.1-0.3,0.2
		c-0.1,0.1-0.1,0.3,0,0.5c0.4,0.6,0.5,1.1,0.3,1.6c-0.1,0.4-0.5,0.7-1,0.7c-0.6,0-1,0.2-1,0.4c0,0.2-0.1,0.5-0.2,0.7l-0.7,0.6
		l-1.8,1.3c-0.8,0.6-1.4,0.9-1.7,1c-0.2,0-0.3,0.1-0.5,0.3c-0.2,0.1-0.3,0.3-0.3,0.4c-0.1,0.4-0.2,0.6-0.4,0.8
		c-0.2,0.2-0.5,0.2-0.9,0.2c-0.7,0-1.3,0.1-1.9,0.6c-0.6,0.5-0.8,1-0.6,1.6c0.2,0.7,0.2,1.2-0.2,1.5l-0.9,0.2
		c0.5-0.3,0.6-0.8,0.3-1.5c-0.3-0.8,0-1.5,0.8-2.1c0.7-0.6,1.5-0.9,2.4-0.8c0.5,0,0.8-0.2,0.9-0.6c0.1-0.2,0.2-0.5,0.4-0.7
		c0.2-0.2,0.4-0.3,0.7-0.4c0.5-0.2,1.6-0.9,3.3-2.2c0.4-0.3,0.6-0.6,0.6-0.9c0.1-0.5,0.6-0.8,1.6-0.8c0.3,0,0.5-0.2,0.5-0.5
		c0-0.3-0.1-0.6-0.3-1c-0.2-0.4-0.2-0.7,0-1c0.2-0.3,0.4-0.4,0.7-0.4c0.3,0,0.5-0.1,0.5-0.4c0-0.5,0.1-1,0.4-1.6
		c0.5-1,1.6-2.1,3-3.4l-1.4,0.4c-0.8,0.1-1.5,0.5-2.1,1l-2,1.6c-0.8,0.5-1.7,1.1-2.7,1.6c-0.6,0.3-1,1.1-1.4,2.5
		c-0.2,0.5-0.6,1-1.2,1.5c-0.7,0.4-1.3,0.6-1.9,0.6l-0.3-0.6c0.5,0.1,1,0,1.6-0.3c0.6-0.3,1-0.8,1.1-1.3c0.4-1.5,1-2.4,1.8-2.8
		c0.9-0.5,1.8-1,2.6-1.6l2-1.6c0.6-0.5,1.4-0.8,2.4-1c0.7-0.1,1.5-0.3,2.4-0.7l0.4,0c0,0.1,0,0.2-0.2,0.4
		C133,25.2,132.3,26,131.6,26.8"/>
	<path class="st5" d="M132.2,47.8c0.2,0.6,0.3,1,0.2,1.3c-0.1,0.3-0.5,0.5-1.2,0.7l-4.5,1.2l-1.4,0.2c-0.4,0-0.8-0.2-1-0.5
		c-1.1-1.5-3.1-2.3-5.9-2.4c-2.7-0.2-4.9,0.3-6.6,1.5c-0.9,0.6-1.5,0.6-2,0.1c-0.4-0.5-0.3-1.1,0.2-1.8c1.3-1.8,3-3.2,5-4.2
		c2-1,4.1-1.5,6.3-1.5c2.4,0,4.4,0.3,6.1,1.1C129.7,44.2,131.3,45.7,132.2,47.8 M131.6,48.1c-0.8-1.9-2.3-3.2-4.5-4.1
		c-1.7-0.7-3.5-1-5.7-1c-2.1,0-4.1,0.5-6,1.4c-1.9,0.9-3.5,2.2-4.8,3.9c-0.3,0.4-0.3,0.7-0.1,0.9c0.2,0.2,0.6,0.2,1.1-0.1
		c1.8-1.2,4.1-1.7,6.9-1.6c2.9,0.1,5.1,1,6.4,2.6c0.2,0.2,0.4,0.3,0.6,0.3l1.1-0.2c0.4-0.1,1.9-0.5,4.5-1.1c0.3-0.1,0.5-0.2,0.6-0.4
		C131.7,48.5,131.7,48.3,131.6,48.1"/>
	<path class="st5" d="M122.8,56.9c-2.2,0.3-4.2,0.3-6.2,0l-3.5-0.2l-4.3,0.2c-0.8,0.1-1.4-0.3-1.6-1.2c-0.3-0.8-0.2-1.7,0.3-2.6
		c0.6-1.1,1.5-2.4,2.7-3.8l0.6,0.4c-1.3,1.6-2.2,2.8-2.7,3.6c-0.4,0.8-0.5,1.4-0.3,2c0.2,0.6,0.5,0.8,1.1,0.8
		c3.7-0.3,6.3-0.3,7.9-0.1c1.8,0.3,3.8,0.3,5.8,0.1c2.2-0.3,3.7-0.8,4.5-1.6c0.2-0.2,0.4-0.3,0.5-0.2c0.1,0.1,0.1,0.2-0.1,0.5
		C126.6,55.9,125.1,56.5,122.8,56.9"/>
	<path class="st5" d="M79.9,59.9l4.9,0.7c2.7,0.5,4.6,1.9,5.7,4.2c1.1,2.2,1.6,5.3,1.3,9.4c-0.1,1.4,0.2,2.6,0.9,3.5
		c0.7,0.9,1.6,1.3,2.8,1.3c2.5,0,5-0.3,7.4-0.7c2.8-0.6,4.8-1.3,6-2.3l-0.4,1.2c-1.4,0.9-3.4,1.6-6,2.1l-6.9,0.5
		c-1.5,0-2.6-0.5-3.4-1.5c-0.8-1-1.2-2.4-1.1-4.1c0.2-3.9-0.2-6.8-1.2-8.9c-1.1-2.1-2.8-3.4-5.2-3.9c-1.2-0.2-2.8-0.5-4.8-0.7
		l-5.1-0.4c-0.8,0-1.5,0.2-2.3,0.8c-0.4,0.3-0.8,0.7-1.2,1.1l-1.2,1.4c-1,1.1-2.9,2.8-5.4,5c-2.7,2.3-5.7,4.3-9,6.2
		c-0.6,0.3-1,0.8-1.2,1.4c-0.3,0.7-0.6,1.7-0.9,2.9L53,78.8c0.3-1.2,0.6-2.2,0.9-2.9c0.1-0.3,0.3-0.6,0.6-0.9
		c0.3-0.3,0.6-0.5,0.9-0.7c3.1-1.8,6.1-3.8,9.1-6.2c2.8-2.2,4.7-4.1,5.7-5.5c0.6-0.9,1.2-1.6,1.9-2.1c0.9-0.7,1.9-1,2.9-1L79.9,59.9
		"/>
	<path class="st5" d="M83.8,68.8c1.3,0.3,2.3,0.8,3,1.4c0.8,0.6,1.6,0.8,2.4,0.7c0.8-0.2,1.5-0.7,2-1.5l0.1,0.9
		c-0.5,0.7-1.2,1.2-2.2,1.3c-1,0.2-1.9-0.1-2.7-0.7c-0.7-0.6-1.7-1.1-3-1.4c-1.2-0.3-2.3-0.5-3.2-0.4l0.2-0.7
		C81.6,68.4,82.7,68.5,83.8,68.8"/>
	<path class="st5" d="M235.1,98.8c-3-0.8-6.3-1.9-9.9-3.2c-3.8-1.4-7.2-2.9-10.3-4.4l-1.2-1.5c2.9,1.4,6.5,3,10.6,4.6
		c4,1.6,7.4,2.8,10,3.5c-4.2-5.6-10.2-11.9-18.1-18.9c-7.8-7-15.9-13.2-24-18.6c-5-3.4-11.2-6.5-18.3-9.4c-4.9-2-11.7-4.4-20.5-7.3
		c-1.8-0.6-3.4-0.9-4.9-0.9c-1.3,0-2.9,0.2-4.8,0.6c-2.3,0.5-4.6,0.9-7,1.3c-3.1,0.4-5.4,0.6-7,0.5l-1-0.8c1.5,0.1,4,0,7.4-0.5
		c2.8-0.4,5.3-0.8,7.5-1.3c2.1-0.5,3.9-0.7,5.4-0.6c1.3,0,2.9,0.3,4.7,0.9c8.6,2.7,15.5,5.1,20.9,7.3c7,2.9,13.1,6,18.2,9.5
		c8.6,5.7,17,12.2,25.2,19.5c8.6,7.7,14.5,14,17.7,19.1c0.1,0.2,0.2,0.4,0.1,0.5L235.1,98.8"/>
	<path class="st5" d="M200.6,92.1c2.9,1.9,7.1,4.4,12.4,7.3c5.3,2.9,10,5.4,14.1,7.3c-7.2-9.8-15.2-18.5-23.7-25.9
		c-10-8.7-19.5-14.2-28.3-16.6c-0.3-0.1-0.5-0.2-0.4-0.3c0-0.1,0.2-0.2,0.5-0.1c8.7,1.8,18.3,7.3,29,16.4
		c9.5,8.2,17.6,17.2,24.4,27.2c0.2,0.3,0.3,0.5,0.2,0.7l-0.6,0c-4.1-1.9-9-4.4-14.7-7.6c-5.9-3.2-10.3-5.8-13.3-7.7
		c-2.5-1.6-5.4-3.2-8.7-4.8c-3.4-1.6-7.5-3.3-12.2-5c-5.5-2-9.2-3.5-10.9-4.4c-3.4-1.8-5.9-3.9-7.5-6.3c-3-4.7-5.6-8.7-7.9-12
		c-3.7-5.3-6.1-8.2-7.1-8.6c-1.2-0.5-3.8-0.6-7.6-0.3c-3.8,0.3-6.8,0.7-8.9,1.5l-0.6,0c0-0.1,0.1-0.3,0.4-0.4
		c1.9-0.9,4.8-1.5,8.9-1.8c4-0.3,6.7-0.2,8.1,0.3c1.3,0.5,3.8,3.5,7.6,9l7.8,11.9c1.5,2.4,4.1,4.4,7.7,6.2c1.8,0.9,5.2,2.3,10.4,4.2
		c4.8,1.8,8.9,3.4,12.3,5C195.2,88.9,198.1,90.5,200.6,92.1"/>
	<path class="st5" d="M193.6,60.6c4.9,1.9,11.3,5.5,19.1,11c8.1,5.6,13.2,10,15.4,13.2c0.2,0.3,0.2,0.5,0.1,0.6
		c-0.1,0.1-0.3,0.1-0.5,0l-6.3-1.9l-0.9-1.1c2.5,0.6,4.6,1.2,6.1,1.9c-2.7-3.1-7.4-7-14.2-11.7c-6.2-4.3-11.6-7.5-16.1-9.8
		L193.6,60.6"/>
	<path class="st5" d="M162.7,33c-1.6,1-2.6,1.8-3,2.5l-0.6-0.2c0.4-0.7,1.2-1.4,2.4-2.2c1.2-0.8,2.4-1.5,3.8-2l-4.5,0.5l-3.4,0.2
		c-0.5,0-1.2,0.1-1.9,0.5c-0.8,0.3-1.5,0.8-2.3,1.4c-0.4,0.3-0.7,0.7-0.7,1c-0.1,0.5-0.4,0.9-1,1.1c-0.6,0.2-1.1,0.2-1.5-0.1
		c-0.2-0.2-0.7-0.3-1.5-0.3c-1.1,0-2,0-2.8,0l-3,0.3c-0.8,0.1-1.5,0.4-2.2,0.7c-0.6,0.4-1.4,0.9-2.3,1.8c-0.5,0.5-0.8,1.4-1,2.8
		c-0.1,0.7-0.3,1.3-0.7,1.9c-0.4,0.6-0.9,1.1-1.5,1.5l-1.1,0.1c0.7-0.4,1.3-0.9,1.7-1.5c0.5-0.7,0.8-1.4,0.9-2.1
		c0.1-0.6,0.2-1.2,0.4-1.7c0.2-0.7,0.5-1.1,0.8-1.4c0.9-0.9,1.7-1.5,2.4-1.9c0.7-0.4,1.5-0.7,2.3-0.8l3.1-0.3c0.8,0,1.8-0.1,2.8,0
		c0.9,0,1.5,0.2,1.8,0.5c0.2,0.2,0.5,0.2,0.9,0.1c0.4-0.1,0.6-0.4,0.7-0.7c0.1-0.4,0.4-0.9,0.9-1.3c0.8-0.7,1.6-1.2,2.4-1.5
		c0.8-0.3,1.5-0.5,2.1-0.5l5-0.3l5.1-0.6c0.3,0,0.4,0,0.5,0.1c0,0.1-0.1,0.2-0.3,0.3C165.9,31.2,164.3,32,162.7,33"/>
	<path class="st5" d="M149,40.5c-0.9,0-1.6-0.1-2-0.3l-0.6-0.1c-0.2,0-0.4,0.1-0.6,0.3c-0.8,0.8-1.4,1.6-1.7,2.4l-0.8,0.1
		c0.2-0.4,0.5-0.9,0.9-1.5l1.2-1.4c0.2-0.2,0.5-0.4,0.9-0.4c0.3,0,0.6,0,0.9,0.1c0.3,0.2,0.9,0.2,1.7,0.2c0.9,0,1.7-0.1,2.2-0.4
		c0.6-0.2,1.2-0.4,1.7-0.4c0.4,0,0.6-0.2,0.6-0.5c0-0.3,0.4-0.5,1-0.5c0.4,0,0.8-0.1,1.4-0.3c0.6-0.2,0.9-0.5,1.2-0.8
		c0.4-0.6,1.3-1,2.5-1.4c-0.5-0.1-0.9-0.1-1.4,0c-0.3,0.1-0.5,0-0.5-0.1c0-0.1,0.1-0.3,0.4-0.3c1-0.2,1.9-0.1,2.7,0.2
		c0.2,0.1,0.3,0.2,0.3,0.3c0,0.1-0.1,0.2-0.3,0.2c-0.7,0.1-1.4,0.3-2,0.5c-0.6,0.3-1,0.6-1.2,0.9c-0.3,0.4-0.7,0.6-1.4,0.9
		c-0.6,0.2-1.1,0.3-1.6,0.3c-0.3,0-0.5,0.1-0.5,0.3c-0.1,0.5-0.5,0.7-1.1,0.8c-0.4,0-0.9,0.1-1.6,0.4
		C150.7,40.3,149.9,40.5,149,40.5"/>
	<path class="st5" d="M64.2,68.7l0.9-0.6c0,0.3,0,0.6,0,0.8c-0.1,0.2-0.2,0.4-0.3,0.5c-0.1,0.1-0.3,0.1-0.4-0.1
		C64.3,69,64.2,68.9,64.2,68.7"/>
	<path class="st5" d="M66.3,67.2c0.1,1,0,1.9-0.4,2.6c-0.3,0.7-0.7,1.1-1.2,1.1c-0.3,0-0.6-0.1-0.8-0.3c-0.2-0.3-0.4-0.6-0.5-1.1
		l0.5-0.3c0,0.4,0.1,0.7,0.3,1c0.2,0.2,0.3,0.3,0.6,0.3c0.3,0,0.6-0.3,0.9-0.9c0.2-0.6,0.3-1.3,0.3-2.1L66.3,67.2"/>
	<path class="st5" d="M68.6,65.1c0.1,1.2-0.3,2.4-0.9,3.5c-0.7,1.2-1.6,2-2.7,2.4c-0.6,0.3-1.3,0.4-2,0.4l-2-0.2l0.6-0.7l1.7,0.2
		c0.6,0,1.1-0.1,1.6-0.3c0.8-0.3,1.5-0.9,2.1-1.9c0.6-1,0.9-2,0.9-3L68.6,65.1"/>
	<path class="st5" d="M75.2,60c-0.8,0.8-1.5,1.8-2.2,3.1c1.3-0.6,2.7-1,4.2-1.2l4.7-0.2c0.3,0,0.4,0.2,0.2,0.5
		c-0.6,0.8-1.7,1.9-3.2,3.2c-1.4,1.2-2.7,2.2-4,3.1c0.9,0.7,1.7,1.6,2.4,2.7c0.8,1.1,1.3,2.2,1.6,3.3c0.1,0.4,0,0.6-0.4,0.3
		c-1.7-1-3.6-1.5-5.5-1.4c-0.3,0-0.5-0.1-0.5-0.2c0-0.1,0.1-0.2,0.5-0.3c1.8-0.2,3.5,0.2,5.1,1c-0.4-1-0.9-2-1.6-2.9
		c-0.7-1-1.4-1.7-2.2-2.2c-0.2-0.2-0.2-0.3,0-0.5c1.1-0.7,2.4-1.7,3.7-2.9c1.4-1.2,2.5-2.3,3.2-3.2c-1.6,0-3.1,0.1-4.6,0.4
		c-1.5,0.3-2.9,0.7-4.1,1.3l-0.4,0c-0.1-0.1-0.1-0.2,0-0.4c0.7-1.5,1.4-2.7,2.3-3.7L75.2,60"/>
	<path class="st5" d="M73.5,73.2c0.2,0.9,0.4,2.1,0.6,3.6c0.2,1.5,0.3,2.7,0.3,3.6c0,0.2-0.1,0.3-0.2,0.4c-0.1,0-0.2-0.1-0.3-0.2
		c-0.7-1.4-1.5-2.5-2.3-3.2c-0.2,0.7-0.6,1.4-1.1,2c-0.6,0.7-1.1,1.2-1.7,1.5c-0.4,0.2-0.5,0.1-0.4-0.3c0.2-0.8,0.3-1.6,0.3-2.3
		c0-0.6-0.1-1.3-0.2-2l0.5-0.3c0.3,1.3,0.4,2.6,0.1,4.1c0.5-0.4,1-0.8,1.4-1.4c0.4-0.6,0.7-1.1,0.9-1.7c0.1-0.2,0.2-0.3,0.4-0.1
		c0.8,0.6,1.5,1.4,2.1,2.4L73.6,76c-0.2-1.2-0.3-2.1-0.5-2.8L73.5,73.2"/>
	<path class="st5" d="M63.9,76.3c-2.6,1-4.1,1.6-4.4,1.8c-0.3,0.1-0.5,0.4-0.8,0.8c-0.3,0.4-0.5,0.9-0.7,1.4l-0.7-0.2
		c0.2-0.6,0.5-1.1,0.9-1.6c0.3-0.5,0.7-0.8,1.1-1c0.2-0.1,0.7-0.3,1.6-0.6l2.9-1l0.5,0C64.3,76.1,64.2,76.2,63.9,76.3"/>
	<path class="st5" d="M71.6,93.2c-0.6,0.3-1,0.8-0.9,1.6c0,1.4,0.2,2.8,0.4,4.3c0.2,1.1,1,1.7,2.4,1.7c1.5,0,3.3-0.4,5.5-1.2
		c2.1-0.8,3.7-1.8,5-2.9c0.9-0.8,1.3-1.9,1.2-3.4c0-1.4-0.4-2.5-1.1-3.3C84,90,83.9,90,83.8,90c-0.1,0-0.1,0.1-0.1,0.2
		c0,0.4,0,0.7-0.2,1.1c-0.2,0.4-0.4,0.6-0.7,0.8c-0.7,0.5-1.9,1.1-3.7,2c-1.6,0.7-3.1,1.4-4.5,1.9c-1,0.4-1.8,0.3-2.4-0.1
		c-0.6-0.4-0.7-1.1-0.4-2l0.5,0.5c-0.1,0.5,0.1,0.9,0.5,1.1l1.6-0.1c1.3-0.5,2.8-1.1,4.4-1.9c1.7-0.8,2.9-1.4,3.6-1.9
		c0.5-0.3,0.7-0.8,0.7-1.6c0-0.4,0.1-0.6,0.3-0.7c0.2-0.1,0.5,0,0.8,0.2c0.9,0.8,1.4,2.1,1.4,3.8c0.1,1.8-0.4,3.2-1.4,4.1
		c-1.3,1.1-3.1,2.1-5.4,3c-2.2,0.8-4.1,1.3-5.6,1.3c-1.8,0-2.8-0.8-3-2.3c-0.3-1.6-0.4-3-0.5-4.4c0-0.5,0.1-1,0.4-1.4
		c0.3-0.4,0.6-0.7,1-0.9L71.6,93.2"/>
	<path class="st5" d="M71.8,104.3l0-3.3l0.9,0.2l0,3.5L71.8,104.3"/>
	<path class="st5" d="M71.8,111c-0.6,2.2-1.4,4.8-2.6,7.9c-1.1,3-2.2,5.7-3.4,8.3l-0.5-0.9c1.2-2.8,2.2-5.5,3.2-8.2
		c1.1-3.1,1.9-5.6,2.4-7.6L71.8,111"/>
	<path class="st5" d="M71.5,93c-0.1-2.6-0.2-5.1-0.4-7.6c-0.2-2.4-0.5-4.4-0.8-6l0.5-0.6c0.4,1.8,0.7,4.4,1.1,7.8
		c0.3,3.3,0.6,6.4,0.7,9c-0.1,0-0.2-0.2-0.3-0.5c-0.1-0.3-0.2-0.5-0.1-0.7L71.5,93"/>
	<path class="st5" d="M85.9,84.4c0.1,0.1,0,0.2-0.1,0.5c-1,1.4-1.6,3-1.9,4.9l-0.6,0.7c-0.1-0.6,0.1-1.5,0.6-2.7
		c0.3-0.9,0.7-1.7,1.2-2.6c-0.6,0.5-1.1,1.1-1.5,1.7l0-0.9c0.5-0.6,1.1-1.2,2-1.6L85.9,84.4"/>
	<path class="st5" d="M84.9,78.8c-0.3,0.9-0.5,2.1-0.8,3.5c-0.3,1.6-0.5,3-0.6,4.3c0,0.5-0.2,0.8-0.3,0.8c-0.2,0-0.2-0.3-0.2-0.9
		c0.2-2.5,0.5-4.8,1-7c-1,0.8-1.9,2.2-2.6,4c-0.6,1.5-1.2,3.2-1.5,5l-0.3-1c0.3-1.9,0.9-3.6,1.6-5c0.9-1.8,2-3.2,3.3-4.1
		c0.2-0.1,0.3-0.2,0.4-0.1C84.9,78.5,84.9,78.6,84.9,78.8"/>
	<path class="st5" d="M77.3,89.3c0.3-2.1,0.8-3.7,1.3-4.8c0.1-0.3,0.2-0.4,0.3-0.3c0.1,0,0.2,0.2,0.2,0.4c0.1,0.8,0.3,1.6,0.6,2.6
		c0.3,1,0.6,1.8,0.8,2.4c0.2,0.4,0.2,0.6,0.1,0.6c-0.1,0.1-0.3-0.1-0.5-0.4c-0.5-1.1-1-2.5-1.4-4.2c-0.4,1.1-0.7,2.5-0.9,4.2
		c-0.2,1.6-0.3,3.1-0.3,4.5l-0.7,0.3C76.8,93.1,76.9,91.3,77.3,89.3"/>
	<path class="st5" d="M69,87.3l0.4,0c0.9,0.5,1.7,0.9,2.4,1.4l0,0.8c-0.5-0.4-1.1-0.9-1.9-1.3c0.8,1.8,1.5,3.4,2.1,5l0,1.9
		c-0.3-1-0.8-2.3-1.5-3.9L69,87.8C68.9,87.5,68.9,87.4,69,87.3"/>
	<path class="st5" d="M29.9,74.1c1.8,0,4.6,0,8.3,0.2l11.5,0.9L49.5,76l-11.6-1c-3.8-0.2-6.5-0.3-8.1-0.2c-0.8,0-1.4,0.2-1.7,0.4
		l-0.5-0.5C28.2,74.3,28.9,74.1,29.9,74.1"/>
	<path class="st5" d="M64.4,78.9c2.7,1.3,4.9,2.7,6.7,4.1l0,1.1c-1.9-1.6-4.5-3.2-7.6-4.7L64.4,78.9"/>
	<path class="st5" d="M65.2,59.8c-0.8,0.8-1.5,1.6-2.2,2.6c-0.4,0.5-0.6,1-0.9,1.4c-0.4,0.7-0.7,1.6-1,2.7c-0.1,0.3-0.2,0.5-0.3,0.5
		c-0.1,0-0.1-0.2,0-0.5c0.3-1.1,0.5-2,0.8-2.6c0.2-0.7,0.6-1.3,0.9-1.8c0.3-0.5,0.6-0.9,0.9-1.2c0.4-0.4,0.9-0.9,1.4-1.3
		c0.3-0.2,0.4-0.2,0.5-0.1C65.5,59.4,65.4,59.5,65.2,59.8"/>
	<path class="st5" d="M65.7,63.8c-1.1,1-2.2,2.1-3.1,3.3c-0.2,0.3-0.4,0.4-0.5,0.3c-0.1,0-0.1-0.2,0.1-0.5c0.5-0.8,0.9-1.4,1.4-2
		c0.5-0.5,1-1,1.7-1.5c0.3-0.2,0.4-0.2,0.5-0.1C66.1,63.4,66,63.6,65.7,63.8"/>
	<path class="st5" d="M22.2,75.3c-0.9,0.4-1.5,0.6-1.9,0.9c-1.3,0.7-1.9,1.8-2,3.3l-0.6-0.1c0-1.8,0.8-3.1,2.3-3.9
		c0.4-0.2,1-0.5,1.9-0.9c1-0.4,1.7-0.7,2.2-0.9c1.5-0.5,2.7-0.3,3.6,0.5c0.6,0.5,1.2,1.2,1.7,1.9c0.8,1,1.4,2,1.6,2.9
		c0.1,0.4,0.1,0.7,0,0.9c-0.1,0.2-0.3,0.5-0.7,0.8c-0.2,0.2-0.8,0.5-1.6,0.9l-1.7,0.8c-0.4,0.2-0.7,0.2-0.9,0.1
		c-0.3-0.1-0.6-0.4-0.9-0.8c-0.7-0.9-1.5-1.7-2.4-2.4c-0.5-0.4-1-0.5-1.5-0.5c-0.5,0.1-0.8,0.4-1,0.9l-0.6-0.2
		c0.3-0.7,0.7-1.1,1.4-1.3c0.7-0.2,1.4-0.1,2.1,0.4c1,0.8,1.9,1.7,2.5,2.6c0.2,0.3,0.4,0.5,0.6,0.5l0.6-0.1l1.6-0.7
		c0.8-0.4,1.3-0.7,1.5-0.8c0.3-0.2,0.4-0.5,0.3-0.9c-0.2-0.8-0.8-1.8-1.7-2.8l-1.5-1.5c-0.4-0.4-0.8-0.6-1.3-0.7
		c-0.5-0.1-1,0-1.7,0.2C23.8,74.6,23.1,74.9,22.2,75.3"/>
	<path class="st5" d="M19.1,83c-2.6-0.7-5.7-1.4-9.4-2c-0.2,0-0.3-0.1-0.3-0.2c0-0.1,0.1-0.2,0.3-0.3c1.5-0.5,3.5-0.9,5.8-1.1
		c2-0.2,3.6-0.2,4.6,0c0.5,0.1,0.8,0.3,1.1,0.6c0.3,0.4,0.4,0.8,0.4,1.2c0,0.7-0.3,1.2-0.9,1.5C20.3,83,19.7,83.1,19.1,83
		 M20.3,82.2c0.4-0.2,0.6-0.6,0.6-1.1c0.1-0.7-0.2-1.1-0.9-1.2c-0.8-0.1-2.1-0.2-3.8-0.1c-2,0.1-3.8,0.4-5.3,0.7
		c3.5,0.5,6.3,1.1,8.4,1.7C19.7,82.4,20,82.4,20.3,82.2"/>
	<path class="st5" d="M15.2,81.8c-0.8,0.1-2,0.5-3.7,1.1c-1.7,0.6-2.9,1.2-3.8,1.7l4.9-0.2c1.4,0,2.7,0,3.8,0.1c0.9,0,1.6-0.1,2-0.5
		c0.4-0.3,0.6-0.8,0.5-1.4l0.7,0.1c0.1,0.8-0.1,1.3-0.6,1.8c-0.6,0.5-1.4,0.7-2.6,0.6c-2.9-0.2-6.1-0.2-9.4,0h0
		c-0.2,0-0.3,0-0.3-0.1c0-0.1,0-0.2,0.2-0.3c0.6-0.6,1.6-1.2,3-1.9c1.4-0.7,2.7-1.2,3.9-1.5L15.2,81.8"/>
	<path class="st5" d="M18.2,84.6c0.2,0.9-0.1,1.7-1,2.3c-0.8,0.6-2.1,1.3-3.8,2.1c-1.8,0.9-3.3,1.5-4.5,1.9c-0.2,0.1-0.3,0.1-0.3,0
		c0,0,0-0.2,0.1-0.3c0.4-0.8,1.1-1.7,2-2.9c1-1.1,2-2.1,3.1-2.9l0.9,0.1c-0.9,0.7-1.9,1.5-3,2.6c-1,1-1.7,1.9-2.3,2.7
		c1.2-0.4,2.5-1.1,4.1-1.9c1.5-0.8,2.6-1.4,3.3-1.9c0.6-0.4,0.9-1,0.8-1.6L18.2,84.6"/>
	<path class="st5" d="M19.1,89.4c0.4-0.8,1.1-1.7,1.9-2.9c0.9-1.3,1.7-2.2,2.3-2.9c0.8-0.9,1.6-1,2.5-0.4c0.9,0.6,1,1.5,0.4,2.5
		c-0.6,1-1.5,1.9-2.9,2.7c-1.3,0.8-2.7,1.2-4,1.4l-0.2-0.1C19.1,89.7,19.1,89.6,19.1,89.4 M23.8,84.1c-0.7,0.7-1.4,1.7-2.3,2.8
		c-0.8,1-1.3,1.8-1.6,2.4c1.1-0.2,2.2-0.7,3.4-1.5c1.2-0.8,2.1-1.6,2.5-2.4c0.4-0.8,0.3-1.4-0.2-1.7C24.9,83.4,24.3,83.5,23.8,84.1"
		/>
	<path class="st5" d="M15.9,87.3c-0.2,1-0.3,2-0.2,2.9c0.1,1.1,0.4,1.9,0.8,2.7c4,6.1,10.2,12.8,18.8,20
		c8.6,7.2,15.8,11.8,21.6,13.7c-3.8-5.7-8.5-11.9-14.1-18.6c-5.5-6.6-9.8-11.1-12.8-13.6c-0.3-0.2-0.4-0.4-0.3-0.5
		c0.1-0.1,0.3-0.1,0.6,0.1c3.4,2.2,8,6.9,14.1,14c6.1,7.2,10.7,13.5,13.7,19c0.3,0.5,0.1,0.6-0.3,0.5c-6-1.6-13.4-6-22.2-13.3
		c-8.7-7.2-15.2-14.1-19.6-21c-0.9-1.4-1.2-3.2-0.9-5.5L15.9,87.3"/>
	<path class="st5" d="M30.7,84.9c-0.6,0.7-1.4,1.2-2.5,1.5l-2.8,0.2l0.4-0.7l2.4-0.2c0.9-0.3,1.6-0.7,2.1-1.2L30.7,84.9"/>
	<path class="st5" d="M29.1,83.7c4.8,2.4,9.4,4.7,13.7,7.2c4.7,2.7,7.7,4.7,9.1,6c3.2,3,5.5,5.7,6.8,8c1.4,2.3,1.9,4.4,1.7,6.3
		c-0.3,2.6,0.1,4.5,1.3,5.9c0.9,1,1.9,2.4,2.7,4.1c0.7,1.4,1.3,2.8,1.9,4.4l-0.4,0.9c-0.5-1.5-1.2-3.1-2-4.7c-1-1.9-1.9-3.3-2.8-4.3
		c-0.7-0.7-1.1-1.6-1.4-2.6c-0.3-1.1-0.3-2.3-0.1-3.8c0.5-3.4-2.3-7.9-8.2-13.5c-1.4-1.3-4.6-3.4-9.6-6.3c-3.8-2.2-8-4.6-12.8-7.1
		c-0.3-0.2-0.5-0.4-0.4-0.5L29.1,83.7"/>
	<path class="st5" d="M62.6,121.9l2,0.8l0.3,0.9l-2.3-0.9L62.6,121.9"/>
	<path class="st5" d="M61.7,122.3c-5.1-2.2-9.3-4.6-12.6-7.3l-1.3-1.9c2,1.6,4.4,3.2,7.1,4.8c2.4,1.4,4.7,2.6,7,3.7L61.7,122.3"/>
	<path class="st5" d="M38.1,89.8c3.2,2.3,7.2,5.6,12,10c4.3,4,7.6,7.2,9.9,9.7l-0.2,1.2c-2.1-2.3-5.5-5.7-10.2-10.1
		C45,96.3,41,92.8,37.8,90.2c-0.3-0.3-0.4-0.5-0.4-0.6C37.5,89.5,37.7,89.5,38.1,89.8"/>
	<path class="st5" d="M74,130.2c0.1-1.1,0.1-2.3,0-3.5l-0.2-2.7c-1.6,1.9-2.8,4.5-3.8,8c-1.1,4.2-1.1,8.1,0,11.5
		c0.1,0.4,0.1,0.6,0,0.6c-0.1,0-0.3-0.1-0.4-0.5c-1.3-3.6-1.4-7.8-0.1-12.4c1.1-3.9,2.5-6.6,4.3-8.2c0.3-0.3,0.5-0.2,0.6,0.1
		c0.3,1.7,0.4,3.6,0.4,5.7L74,130.2"/>
	<path class="st5" d="M77.2,124.4c1.9-2.4,3.9-4.3,6-5.4c0.3-0.2,0.5-0.1,0.5,0.3c-0.2,2.4-0.5,4.9-1.1,7.6
		c-0.5,2.8-1.1,5.2-1.8,7.1c-0.1,0.4-0.3,0.6-0.4,0.5s-0.2-0.3,0-0.7c0.5-1.6,1-3.8,1.5-6.6c0.5-2.6,0.9-5.1,1.1-7.3
		c-1.8,1.2-3.6,2.9-5.4,5.1c-1.8,2.3-3,4.5-3.6,6.5c-0.1,0.3-0.2,0.5-0.3,0.4c-0.1,0-0.2-0.2-0.1-0.5
		C74,129.3,75.2,126.9,77.2,124.4"/>
	<path class="st5" d="M81.5,130.1c0.7-0.8,1.4-1.5,2.2-2.1c0.3-0.3,0.5-0.2,0.5,0.3c0.1,2.3-0.3,5-1.3,7.9c-1.1,3.1-2.4,5.2-3.9,6.3
		c-0.3,0.2-0.5,0.2-0.5,0.1c-0.1-0.1,0-0.3,0.3-0.5c1.3-1.1,2.5-3.1,3.5-5.9c0.9-2.6,1.3-5,1.3-7.2c-0.8,0.7-1.6,1.5-2.3,2.4
		L81.5,130.1"/>
	<path class="st5" d="M81.8,102.4c-1.5,0.9-3,1.6-4.5,2.1c-1,0.4-2,0.6-3,0.6c-1.2,0-2-0.2-2.6-0.7c-0.2-0.2-0.3-0.4-0.3-0.5
		c0-0.1,0.2-0.1,0.5,0.1c0.4,0.3,1.1,0.5,2,0.5c1,0,2.1-0.2,3.1-0.6c1.2-0.4,2.5-1.1,4.1-1.9c2.1-1.1,3.4-2.1,4-2.8
		c0.2-0.2,0.3-0.3,0.4-0.2c0.1,0.1,0.1,0.2-0.1,0.5C85,100.3,83.7,101.3,81.8,102.4"/>
	<path class="st5" d="M84.8,98.1c0.5-0.2,1.1-0.2,1.7,0.1c0.6,0.3,1,0.8,1.2,1.4c0.3,0.8,0.5,1.9,0.6,3.3c0,0.5,0,0.9-0.1,1.3
		c-0.1,0.4-0.3,0.7-0.7,1c-2.2,1.9-4.6,3.3-7.1,4.4c-2.6,1.1-5.1,1.7-7.6,1.8c-0.8,0-1.3-0.1-1.7-0.3c-0.5-0.3-0.8-0.8-0.9-1.6
		L70,107c-0.1-1-0.1-1.8-0.1-2.4c0-1.5,0.7-2.3,2.2-2.4l0,0.7c-0.6,0-1,0.2-1.3,0.6c-0.2,0.3-0.3,0.7-0.3,1.2c0,0.6,0,1.3,0.1,2.3
		l0.2,2.5c0.1,0.5,0.2,0.8,0.5,1c0.3,0.2,0.8,0.3,1.4,0.2c5-0.2,9.7-2.2,14.1-6c0.3-0.2,0.4-0.4,0.5-0.7c0.1-0.3,0.1-0.6,0.1-0.9
		c-0.1-1.3-0.3-2.4-0.6-3.2c-0.2-0.5-0.5-0.8-0.9-1l-1.3-0.1L84.8,98.1"/>
	<path class="st5" d="M84.3,100.4c0-0.8-0.1-2-0.2-3.3l0.8-0.6c0.2,1.4,0.2,2.5,0.2,3.2L84.3,100.4"/>
	<path class="st5" d="M76.7,116c0.4-1.3,0.6-3.2,0.7-5.7l0.6-0.2c-0.1,2.7-0.4,4.7-0.8,6.1c-1.3,4.3-1.9,8.2-1.9,11.5l-0.6,0.9
		c-0.1-2.1,0.1-4.4,0.6-6.8C75.6,120.3,76,118.4,76.7,116"/>
	<path class="st5" d="M77.5,104.2l-0.3-3.5l0.7-0.2l0.2,3.3L77.5,104.2"/>
	<path class="st5" d="M67.1,128.9c1,2.2,1.7,4.2,2.1,5.8l-0.3,1.5c-0.2-1.5-0.9-3.5-1.9-5.8c-0.9-2.1-1.7-3.7-2.4-4.7
		c-0.4,2.1-0.4,4.6-0.2,7.6c0,0.4,0,0.6-0.2,0.6c-0.1,0-0.2-0.2-0.3-0.6c-0.2-1.4-0.3-2.8-0.2-4.4c0-1.6,0.2-2.9,0.4-4
		c0-0.2,0.1-0.3,0.2-0.3c0.1,0,0.2,0,0.3,0.2C65.4,125.4,66.1,126.8,67.1,128.9"/>
	<path class="st5" d="M60.9,128.5c-0.2,3-0.1,6.1,0.4,9.4c1.4,10.5,5,19.5,10.8,26.8c4.1,5.2,8.8,9.1,14.2,11.7l0,0.9
		c-5.8-2.7-10.9-6.9-15.2-12.6c-5.6-7.4-9.1-16.3-10.5-26.8c-0.5-3.7-0.6-7.1-0.3-10.3c0.3-3.4,1-5.8,2-7.3c0.2-0.2,0.3-0.3,0.4-0.2
		c0.1,0,0.2,0.2,0.2,0.4c0,0.7,0.2,1.9,0.5,3.6c0.3,1.6,0.6,3.1,0.9,4.3l-0.2,1.5c-0.3-0.9-0.7-2.3-1-4.1c-0.3-1.7-0.5-3.1-0.6-4.2
		C61.5,123.1,61.1,125.4,60.9,128.5"/>
	<path class="st5" d="M91.8,198.8c-1.1,1.4-2.9,2.6-5.6,3.4c-2.3,0.7-4.4,1-6.1,0.8c-0.4,0-0.7-0.2-0.8-0.5
		c-0.1-0.3-0.1-0.7,0.1-1.2c0.4-0.9,1.1-1.8,1.9-2.7c1-1.1,2-1.9,3.1-2.5c0.3-0.2,0.6-0.5,0.8-0.8c0.2-0.4,0.3-0.9,0.4-1.7l0.7,0
		c-0.1,0.8-0.3,1.5-0.5,2c-0.2,0.5-0.6,0.9-1,1.2c-1,0.5-2,1.3-2.9,2.3c-0.8,0.9-1.4,1.7-1.9,2.6c-0.2,0.4-0.1,0.6,0.2,0.7
		c1.9,0.2,4-0.2,6.4-1c2.3-0.8,3.9-1.8,4.6-2.9c1.1-1.6,1.7-3.2,1.9-4.7l0.7-0.1C93.7,195.4,93.1,197.1,91.8,198.8"/>
	<path class="st5" d="M68,164.5c0.1,1.7,0.4,2.9,0.9,3.7c1.8,2.6,4.1,4.8,6.9,6.6c2.3,1.5,4.4,2.4,6.4,2.8c0.6,0.1,1.2,0.4,1.8,0.9
		c0.6,0.5,1.1,1.2,1.5,2l-0.4,1.1c-0.3-1-0.7-1.7-1.3-2.3c-0.5-0.5-1.1-0.9-1.7-1c-2.3-0.5-4.7-1.5-7.2-3.2c-2.8-1.9-5.1-4-6.7-6.5
		c-0.6-0.9-0.9-2.3-1-4.3c0-1.9,0.2-3.7,0.6-5.5l0.6,0.8C68,161.4,67.9,163,68,164.5"/>
	<path class="st5" d="M76.2,203.5c0.2-0.8,0.7-1.5,1.6-2.3c0.9-0.7,1.8-1.2,2.8-1.3l-0.5,1c-0.7,0.2-1.4,0.5-2.1,1.1s-1,1.1-1.1,1.6
		L76.2,203.5"/>
	<path class="st5" d="M80.7,212l-6.3,0.3l-7.1,0.8c-0.2,0-0.4,0-0.4-0.1c-0.1-0.1,0-0.3,0.2-0.4c2.2-2,4.6-3.7,7.2-5
		c2.4-1.2,4.2-1.8,5.5-1.8c2.1,0,3.3,1,3.6,3c0.2,0.9,0,1.7-0.5,2.3C82.4,211.7,81.6,212,80.7,212 M79.8,206.7c-1,0-2.6,0.5-4.8,1.5
		c-2.4,1.1-4.7,2.5-6.8,4.2l6.6-0.8l5.8-0.4c0.7,0,1.2-0.2,1.6-0.7c0.3-0.4,0.5-0.9,0.3-1.4C82.3,207.5,81.4,206.7,79.8,206.7"/>
	<path class="st5" d="M78.5,203.5c1.1,0.5,1.6,1.5,1.5,2.8l-0.9,0c0-0.9-0.3-1.6-1.1-2c-0.8-0.5-1.8-0.4-3.1,0.1
		c-2,0.8-4.4,2.1-7.2,3.8c-2.8,1.7-4.8,3.2-5.9,4.3l3.8-0.3c1.4-0.2,2.6-0.5,3.6-0.9l-1.3,1.2c-1,0.3-2.2,0.5-3.6,0.6
		c-1.2,0.1-2.3,0.1-3.2,0.1c-0.2,0-0.3-0.1-0.4-0.2c0-0.1,0-0.2,0.1-0.4c0.9-1.2,2.9-2.9,6-4.8c3-1.9,5.6-3.3,7.8-4.1
		C76.1,202.9,77.4,202.9,78.5,203.5"/>
	<path class="st5" d="M73.1,203.8c-1.2,0.4-2.2,0.8-3.1,1.2c-2,1-3.6,2.3-4.7,3.9l-1,0.6c0.6-1.1,1.4-2.2,2.4-3.1
		c0.9-0.9,2-1.6,3-2.2c1-0.5,2.1-0.9,3.5-1.3c1.4-0.4,2.7-0.6,3.7-0.7l-0.2,0.8C75.7,203.2,74.5,203.4,73.1,203.8"/>
	<path class="st5" d="M99.8,191.7c-0.1,0.8-0.4,1.8-1.1,2.9c-0.3,0.6-0.4,2-0.4,4.2c0,0.5,0.3,1.2,1,2l1.6,1.7
		c0.7,0.7,0.8,1.4,0.2,2.1c-0.4,0.5-1.1,1.1-2,1.6c-0.4,0.2-0.7,0.3-1.1,0.3c-0.3,0-0.6-0.1-0.9-0.3l-1.6-1.1
		c-0.5-0.3-1-0.2-1.6,0.2c-0.4,0.3-1,0.9-1.9,1.9c-0.7,0.9-1.2,1.6-1.5,2.1c-0.3,0.6-0.7,0.9-1,1.1c-0.4,0.2-0.9,0.3-1.5,0.2
		c-1.2-0.1-3.1,0-5.7,0.4l0.5-0.8c2.4-0.4,4.2-0.6,5.3-0.5c0.4,0,0.8,0,1-0.2c0.2-0.2,0.5-0.5,0.8-0.9c0.3-0.5,0.8-1.2,1.7-2.1
		c0.9-1,1.5-1.6,2-1.9c0.8-0.6,1.6-0.7,2.3-0.3l1.6,1.1c0.1,0.1,0.3,0.2,0.6,0.1c0.2,0,0.5-0.1,0.7-0.2c0.8-0.5,1.4-0.9,1.7-1.3
		c0.3-0.4,0.3-0.8-0.1-1.2c-0.8-0.8-1.4-1.5-1.7-1.9c-0.7-0.9-1.1-1.6-1.1-2.3c0-1.1,0-2,0-2.6c0.1-0.9,0.2-1.6,0.4-2
		c0.5-0.9,0.9-1.7,1-2.4L99.8,191.7"/>
	<path class="st5" d="M101.1,204.2l0.2-1c0.5,0.7,1,1.7,1.6,3c0.5,1,0.8,1.9,1.1,2.7c0.1,0.2,0.1,0.3,0,0.4l-0.4,0
		c-1-0.4-2.1-0.9-3.1-1.5c-1-0.5-1.8-1.1-2.4-1.6l0.8-0.3c1.5,1.1,2.9,1.9,4.3,2.5C102.6,206.9,101.9,205.5,101.1,204.2"/>
	<path class="st5" d="M83.3,185.6c-2.5,3.5-5.3,5.9-8.3,7.1l4.8-0.3c1.7-0.2,3-0.5,3.8-0.8L81,193l-4,0.5l-3.5-0.1
		c-0.2,0-0.3-0.1-0.3-0.3c0-0.1,0.1-0.3,0.3-0.3c1.2-0.5,2.6-1.3,4.1-2.5c1.6-1.3,3.1-2.7,4.4-4.3c3.3-4,4.5-7.7,3.7-11
		c-0.1-0.3-0.1-0.5,0.1-0.6c0.1,0,0.3,0.1,0.3,0.4C87.2,178,86.2,181.6,83.3,185.6"/>
	<path class="st5" d="M92.5,192.4c-1.8,0.8-4.2,1.3-7.1,1.6c-2.6,0.3-4.8,0.3-6.4,0c-0.2,0-0.4-0.1-0.3-0.3c0-0.1,0.1-0.2,0.3-0.3
		c1.6-0.5,3.3-1.2,5.1-2.1c1.8-0.9,3.4-1.8,4.7-2.8c0.3-0.2,0.4-0.2,0.5-0.1c0.1,0.1,0,0.3-0.3,0.5c-2.5,2.1-5.3,3.6-8.1,4.5
		c2.4,0,5-0.2,7.8-0.8c2.9-0.6,4.9-1.2,5.9-2L92.5,192.4"/>
	<path class="st5" d="M113.5,182.9c-1.7,2.6-4.9,5.2-9.7,7.5c-5.1,2.5-9.9,3.8-14.5,3.9c-0.2,0-0.4-0.1-0.4-0.2
		c0-0.1,0.1-0.3,0.3-0.4c3.2-1.5,5.6-3.3,7.2-5.3c0.2-0.3,0.4-0.4,0.5-0.3c0.1,0.1,0.1,0.3-0.1,0.6c-0.7,0.9-1.5,1.9-2.7,2.7
		c-1.1,0.9-2.2,1.6-3.4,2.1c4.3-0.4,8.8-1.8,13.5-4.3c4.5-2.4,7.4-4.8,8.9-7.3L113.5,182.9"/>
	<path class="st5" d="M109.4,137.7c-3.2,2.6-6,6.2-8.3,10.9c-2.2,4.4-3.1,8-2.9,10.9c0.2,2.8,1.7,6.1,4.4,9.8
		c2.5,3.4,4.9,5.8,7.3,7.1c0.9,0.5,1.6,1.3,2.2,2.4c0.6,1.3,1.3,2.9,1.9,4.5c0.7,1.9,1.2,3.3,1.5,4.4c0.4,1.7,0.6,3.3,0.6,4.7
		c-0.1,1.4-0.4,2.4-1,3.1c-0.9,1.1-1.8,2.7-2.8,4.7c-1.1,2.4-1.8,4.3-2,5.7c0,0.4,0,0.6,0.2,0.7c0.2,0.1,0.5,0,1-0.2
		c2.7-1,5.1-2.7,7.2-5.2c1.9-2.2,3.2-4.5,4-7c0.1-0.3,0.2-0.5,0.3-0.4c0.1,0,0.2,0.2,0.1,0.5c-0.6,2.5-1.9,5-4,7.4
		c-2.2,2.6-4.7,4.4-7.5,5.4l-1.6,0.1c-0.5-0.2-0.7-0.7-0.6-1.4c0.2-1.5,0.8-3.5,2-5.9c1-2.1,2-3.8,2.9-4.9c0.5-0.6,0.8-1.6,0.8-2.9
		c0-1.2-0.2-2.7-0.6-4.3c-0.3-1.1-0.7-2.5-1.4-4.3c-0.7-1.7-1.3-3.2-1.9-4.5c-0.3-0.6-0.6-1-0.9-1.3c-0.2-0.3-0.6-0.5-1-0.7
		c-2.4-1.3-5-3.8-7.6-7.2c-2.9-3.8-4.4-7.2-4.7-10.2c-0.2-2.9,0.8-6.7,3.2-11.3c2.5-4.9,5.4-8.5,8.7-10.9c0.3-0.2,0.5-0.3,0.6-0.1
		C109.8,137.3,109.7,137.5,109.4,137.7"/>
	<path class="st5" d="M106.4,209l-0.9-0.1c0.6-0.8,1.4-1.7,2.4-2.7c1-1,1.8-1.9,2.6-2.6l-0.3,1.4C108.5,206.5,107.3,207.8,106.4,209
		"/>
	<path class="st5" d="M115.5,212c0.7,0.4,1.1,1,1.5,1.7c0.3,0.7,0.4,1.4,0.2,2.1c-0.2,0.8-0.8,1.3-1.6,1.8c-1.3,0.6-3.5,1.3-6.6,1.9
		c-3.3,0.7-6.1,1-8.4,1c-0.3,0-0.4-0.1-0.5-0.2c-0.1-0.1,0-0.3,0.1-0.4c1.3-1.7,3.4-3.5,6.5-5.4c3-1.8,5.3-2.9,6.9-3
		C114.2,211.3,114.8,211.5,115.5,212 M116,214.1c-0.5-1.2-1.3-1.8-2.5-1.7c-1.3,0-3.3,0.9-6.1,2.5c-2.8,1.7-4.9,3.3-6.3,4.9
		c2.3-0.1,5-0.5,8-1.1c2.9-0.6,4.9-1.2,6-1.8C116.3,216.2,116.6,215.3,116,214.1"/>
	<path class="st5" d="M107.3,210.2c-2.4,1.1-4.9,2.6-7.6,4.6c-2.9,2.1-5,3.9-6.2,5.5c1.2,0,2.6-0.1,4.3-0.5c1.7-0.4,3.1-0.9,4.3-1.5
		l-1.2,1.4c-1.4,0.6-2.9,1-4.7,1.3l-3.5,0.1c-0.4-0.1-0.5-0.3-0.2-0.6c1.4-1.9,3.6-3.9,6.5-6c2.8-2.1,5.5-3.7,8.1-4.9
		c1-0.5,2.1-0.5,3.2,0c1.1,0.5,2,1.3,2.7,2.5l-1,0.4c-0.5-1-1.3-1.7-2.2-2.1C108.8,209.8,108,209.8,107.3,210.2"/>
	<path class="st5" d="M107.2,210c-0.7-1-2.1-0.9-4.2,0.3c-1.7,0.9-3.2,2-4.6,3.4c-1.5,1.4-2.4,2.7-2.6,3.8l-0.8,0.6
		c0.1-1.4,1-2.9,2.6-4.6c1.5-1.6,3.2-2.9,5.1-3.9c1.3-0.7,2.5-1,3.4-1c0.9,0,1.6,0.4,1.9,1L107.2,210"/>
	<path class="st5" d="M137.2,164.3c-0.5,2.9-1.6,5.2-3.2,6.6c-1,0.9-1.7,1.7-2.2,2.4c-0.7,0.9-1.3,2-1.8,3.4
		c-0.6,1.5-0.9,3.6-0.9,6.2c0,2.6,0.3,4.5,0.9,5.7c0.5,1,0.6,2.1,0.2,3.5c-0.4,1.3-1.2,2.7-2.4,4.1c-0.8,0.9-1.2,2.2-1.2,3.8
		c0.1,1.6,0.6,2.8,1.5,3.5c1.5,1,2.8,2.1,4,3.2c0.3,0.3,0.5,0.6,0.6,1c0.1,0.4,0.1,0.8-0.1,1.2c-0.1,0.3-0.4,0.7-0.8,1.2l-1.2,1
		c-0.6,0.4-1.2,0.4-1.8,0l-1.9-1.1l-1.4,0c-0.5,0.5-1.3,1.3-2.1,2.5c-0.8,1.2-1.4,2.1-1.7,2.7c-0.4,0.9-1.2,1.3-2.4,1.4
		c-1.2,0-2.6,0.3-4.4,0.9l0.9-1c0.6-0.2,1.2-0.4,1.9-0.5l1.5-0.2c0.8,0,1.3-0.3,1.6-0.9c0.3-0.6,0.9-1.6,1.8-2.8
		c1-1.2,1.8-2.1,2.4-2.7c0.2-0.2,0.5-0.3,0.9-0.3c0.4,0,0.8,0.1,1.2,0.3l1,0.5l1,0.6c0.2,0.1,0.3,0.2,0.5,0.2c0.2,0,0.3-0.1,0.6-0.2
		c0.4-0.2,0.7-0.5,1-0.8c0.3-0.3,0.5-0.6,0.7-0.9c0.2-0.5,0.1-1-0.3-1.4c-1.2-1.1-2.5-2.1-3.9-3.1c-1.1-0.8-1.8-2.1-1.9-3.8
		c-0.2-1.8,0.3-3.3,1.3-4.5c1.1-1.3,1.9-2.5,2.3-3.7s0.3-2.2-0.1-3.1c-0.7-1.3-1-3.3-1-6.2c0-2.8,0.3-4.9,0.9-6.3
		c0.5-1.4,1.2-2.6,1.9-3.6c0.6-0.8,1.4-1.7,2.3-2.5c1.5-1.4,2.6-3.5,3.1-6.3c0.4-2.2,0.5-4.4,0.3-6.7c0-0.3,0-0.5,0.2-0.6
		c0.1,0,0.2,0.1,0.3,0.5C137.6,159.5,137.6,161.8,137.2,164.3"/>
	<path class="st5" d="M116.5,179.3c2-1.7,3.7-3.5,5.1-5.4c0.2-0.3,0.3-0.3,0.4-0.3c0.1,0.1,0.1,0.2-0.1,0.5c-0.5,1-1.3,2-2.3,3.1
		c-0.9,0.9-1.9,1.8-2.9,2.4c-0.3,0.2-0.5,0.3-0.6,0.2C116.1,179.8,116.2,179.6,116.5,179.3"/>
	<path class="st5" d="M122.9,185.4c0.5,1.8,0.7,3.3,0.8,4.6c0,0.3,0,0.5-0.2,0.5c-0.1,0-0.2-0.1-0.3-0.5c-0.2-1.3-0.5-2.8-0.9-4.5
		c-0.4-1.7-0.9-3.3-1.5-4.9c-0.1-0.4-0.1-0.6,0-0.6c0.1,0,0.3,0.1,0.4,0.4C121.9,182,122.4,183.6,122.9,185.4"/>
	<path class="st5" d="M87.7,147.8c1.2,1.7,2.8,3.5,4.8,5.3c2.1,1.9,3.9,3.2,5.4,4l-0.2,0.8c-1.8-0.9-3.7-2.2-5.7-4.1
		c-2-1.9-3.6-3.8-4.8-5.7c-0.2-0.3-0.2-0.5-0.1-0.6C87.3,147.4,87.5,147.5,87.7,147.8"/>
	<path class="st5" d="M87.5,163c2.2,2.4,5.1,4.7,8.8,6.9c4,2.4,7.3,3.7,10,3.9l0.8,0.8c-3.1-0.1-6.7-1.4-10.8-3.9
		c-3.9-2.3-7-4.8-9.1-7.5c-0.2-0.3-0.3-0.5-0.2-0.6C87,162.6,87.2,162.7,87.5,163"/>
	<path class="st5" d="M112.2,179.9l-7.2,0.3c-3.3-0.2-6.1-0.7-8.5-1.5c-0.4-0.1-0.5-0.3-0.5-0.4c0-0.1,0.3-0.2,0.6-0.1
		c2.3,0.6,4.9,1,7.7,1.2l7.6-0.3L112.2,179.9"/>
	<path class="st5" d="M120.3,95.1c-2.8,1.9-5.5,4.3-8.1,7.3c-2.2,2.5-3.6,4.5-4.2,6.1c-1.2,2.8-2.9,4.7-5.1,5.6
		c-1,0.4-2,1.3-2.9,2.7c-1,1.4-1.7,2.9-2.2,4.5c-0.1,0.4-0.2,0.6-0.3,0.5c-0.1,0-0.2-0.2-0.1-0.6c0.2-1.7,0.9-3.4,1.9-4.9
		c1-1.5,2.1-2.5,3.3-3c1-0.4,1.9-1.1,2.7-2c0.8-0.9,1.4-1.9,1.9-3.1c0.7-1.6,2.1-3.7,4.4-6.3c2.7-3.1,5.5-5.6,8.4-7.5
		c3-2,6.1-2.9,9.1-2.8c2.2,0.1,6-0.9,11.4-3c4.6-1.8,8.1-3.5,10.4-5c4.3-2.7,8.9-5.5,13.5-8.2l0.8,0.6c-4.7,2.7-9.3,5.5-13.8,8.4
		c-2.3,1.5-5.9,3.2-10.7,5.1c-5.5,2.1-9.3,3.2-11.7,3.1C126.1,92.4,123.2,93.3,120.3,95.1"/>
	<path class="st5" d="M105.1,130.7c0.5,1,1.4,1.8,2.4,2.5c1.1,0.7,2.5,1.3,4.3,1.7l-0.3,0.9c-3.6-1-6-2.5-7.2-4.6
		c-0.8-1.5-1.9-3.5-3.1-6c-1.3-2.6-2.2-4.8-2.8-6.4l0.5-0.9c0.6,1.6,1.6,3.8,2.9,6.6C103.1,127,104.1,129.1,105.1,130.7"/>
	<path class="st5" d="M121.6,128.4c-0.8,2.9-1.6,5.5-2.5,7.8l-1,1.3c0.8-2.4,1.6-5.1,2.3-8c1.1-4,1.8-7.3,2.1-9.8
		c-2.3,1.6-4.7,4.4-7.1,8.4c-2.4,4-4.1,7.9-5.2,11.8c-0.1,0.4-0.2,0.6-0.4,0.6c-0.1,0-0.2-0.3-0.1-0.7c0.9-4.2,2.6-8.4,5.1-12.5
		c2.6-4.2,5.2-7,7.8-8.5c0.4-0.2,0.5-0.1,0.5,0.3C123.1,121.8,122.5,124.8,121.6,128.4"/>
	<path class="st5" d="M146.3,113.6c-1.3,3.1-3.9,7.4-7.6,12.9c-4,5.8-7.2,9.9-9.8,12.3c-0.3,0.2-0.5,0.3-0.6,0.2
		c-0.1-0.1,0-0.3,0.2-0.6c2.2-2.2,5.1-6,8.9-11.6c3.5-5.2,6.2-9.4,7.8-12.7c-4.1,2-8.8,5.1-13.9,9.4c-5.8,4.9-10,9.5-12.8,14
		c-0.2,0.4-0.4,0.5-0.5,0.4c-0.1-0.1-0.1-0.3,0.1-0.7c2.9-5,7.3-10,13.2-14.9c5.3-4.5,10.2-7.5,14.5-9.2
		C146.3,113.1,146.5,113.2,146.3,113.6"/>
	<path class="st5" d="M158.3,118.3c-1.6,3.1-5,7.5-10.4,13.1c-5.2,5.5-9.4,9.2-12.6,11.3c-0.3,0.2-0.5,0.3-0.6,0.1s0-0.3,0.4-0.5
		c2.7-1.9,6.5-5.6,11.6-10.9c5-5.4,8.6-9.6,10.6-12.7c-3.2,1.3-7.4,3.6-12.6,6.9c-5.2,3.3-9.5,6.4-12.8,9.3l1.1-1.5
		c3.6-3.2,7.8-6.3,12.7-9.3c4.8-3,8.9-5.1,12.3-6.4c0.2-0.1,0.4-0.1,0.4,0C158.4,117.9,158.4,118.1,158.3,118.3"/>
	<path class="st5" d="M137.8,140.4c2.2-1,4.8-1.9,7.7-2.6c2.5-0.6,4.8-1,6.8-1.1c0.2,0,0.3,0,0.3,0.1c0,0.1,0,0.2-0.1,0.4
		c-1.9,2.2-4.5,4.4-7.8,6.7c-3.3,2.3-7,4.4-11,6.3c-0.4,0.2-0.6,0.2-0.7,0.1c-0.1-0.1,0.1-0.3,0.5-0.5c3.8-1.9,7.3-4,10.4-6.1
		c3.1-2.1,5.6-4.2,7.6-6.2c-1.9,0.2-4.3,0.6-6.9,1.4c-3.2,0.8-5.9,1.8-8.2,2.9L137.8,140.4"/>
	<path class="st5" d="M135.1,152c-0.5-0.9-1-1.7-1.5-2.1l0.6-0.3c0.5,0.5,1,1.2,1.5,2.2c0.5,1,0.8,1.8,0.9,2.5
		c0.1,0.3,0,0.5-0.1,0.5c-0.1,0-0.2-0.1-0.3-0.5C135.9,153.7,135.5,152.9,135.1,152"/>
	<path class="st5" d="M135.6,148.9l2.2,2.6l2,2.1c0.7,0.7,1.7,1.1,2.8,1.4c1.2,0.3,2.5,0.3,3.8,0.1c5.1-1,10.2-1.9,15.4-2.6
		c5.2-0.7,9.4-1.1,12.5-1.3c1.9-0.1,4.1-0.3,6.8-0.7l7-1.4c4.1-0.9,8.2-1.5,12.2-1.9c5-0.5,9.2-0.5,12.5,0c0.4,0,0.5,0.2,0.1,0.5
		c-0.9,0.7-1.8,1.4-2.8,2.1c-1.3,0.8-2.5,1.4-3.8,1.7l-1.4,0c1.2-0.3,2.5-0.9,4-1.7c1.2-0.7,2.2-1.4,3.1-2.1
		c-3.5-0.3-7.5-0.2-12.2,0.3c-3.9,0.4-7.7,1-11.6,1.8l-7,1.4c-2.7,0.5-5,0.8-6.8,0.8c-3.1,0.1-7.2,0.5-12.4,1.2
		c-5.1,0.7-10.2,1.6-15.3,2.6c-1.3,0.3-2.7,0.3-4,0c-1.3-0.3-2.4-0.9-3.3-1.6l-2.2-2.2c-0.9-1-1.7-2-2.3-2.7L135.6,148.9"/>
	<path class="st5" d="M137.2,151.6l8-1.3c3.1-0.6,5.5-1.1,7.2-1.6c3.7-1,7.3-1.9,11-2.8c4.4-1,7.3-1.6,8.9-1.8
		c3.6-0.4,6.5-1,8.5-1.8c2-0.9,4.6-1.5,7.8-2c3.2-0.5,5.7-0.6,7.6-0.3c0.5,0.1,0.5,0.2,0.1,0.6c-1.6,1.2-3.6,2.1-6,2.9l-0.6-0.1
		c-0.1-0.1,0.1-0.3,0.4-0.4c1.9-0.7,3.5-1.5,5-2.4c-1.9-0.1-4.2,0.1-7,0.6c-3,0.5-5.3,1.1-7.1,1.9c-1.3,0.5-2.9,1-4.8,1.4l-3.9,0.6
		c-1.6,0.2-4.6,0.7-8.9,1.7c-3.8,0.9-7.4,1.8-10.9,2.7c-2,0.5-4.4,1.1-7.1,1.6c-2.9,0.6-5.4,1-7.5,1.3L137.2,151.6"/>
	<path class="st5" d="M203.8,147.3c0.6-0.6,1.4-1.1,2.2-1.6c1-0.6,1.9-1,2.8-1.3c-0.9,0.1-1.8,0.1-2.8-0.1c-1-0.2-2.1-0.4-3-0.8
		c-1.2-0.5-3-0.8-5.4-0.9l-6.5,0.2l1.6-0.8c2-0.2,4-0.2,5.9-0.1c2,0.2,3.5,0.5,4.6,1c2.1,0.9,4.4,1.2,6.8,1c0.3,0,0.4,0,0.4,0.2
		c0,0.1-0.1,0.3-0.4,0.4c-2.1,0.8-3.8,1.8-5.3,2.9H203.8"/>
	<path class="st5" d="M236.3,156.8c-3.7,0.9-8.9,2.5-15.6,4.9c-1.8,0.7-3.8,1.3-6,1.9c-2.5,0.7-4.3,1.2-5.6,1.4l-1.5-0.4
		c1.3-0.3,3.3-0.8,6.1-1.6c2.7-0.8,4.9-1.5,6.8-2.2c6.5-2.3,11.4-3.8,14.6-4.4c-5-1.5-10.4-2.7-16.1-3.5c-7.3-1.1-13.2-1.3-17.8-0.7
		c-0.5,0.1-0.8,0.1-0.8-0.1c0-0.1,0.2-0.3,0.7-0.4c4.2-0.9,10.3-0.8,18.2,0.4c7.2,1,12.9,2.4,17.1,4.1c0.2,0.1,0.4,0.2,0.4,0.3
		C236.8,156.6,236.6,156.7,236.3,156.8"/>
	<path class="st5" d="M139.2,163.1l10.5,0.7l9.5,1.1l7.9,0.7c3.8,0.2,6.5,0.2,8.1,0c1.2-0.2,2.6-0.2,4.2-0.1
		c1.8,0.1,3.3,0.4,4.4,0.9c1.1,0.5,5.4,0.7,13,0.8c6.6,0,12.6-0.1,18-0.3c-3.4-1.2-6.3-1.9-8.7-2.2c-0.3,0-0.5-0.2-0.5-0.3
		c0-0.1,0.2-0.2,0.6-0.2c1.5,0.1,3.1,0.4,5,0.9c1.7,0.5,3.4,1,4.9,1.7c0.3,0.1,0.4,0.2,0.4,0.4c0,0.1-0.2,0.2-0.5,0.2l-17.2,0.6
		c-8.6,0-13.7-0.2-15.1-0.8c-1-0.4-2.3-0.7-4.1-0.8c-1.7-0.1-3.1-0.1-4.2,0.1c-1.8,0.3-4.7,0.3-8.7,0l-7.3-0.7l-9.9-1.2l-10-0.9
		c-0.4,0-0.6-0.1-0.6-0.3C138.6,163.2,138.8,163.1,139.2,163.1"/>
	<path class="st5" d="M141.1,163.5c0.4,1.3,0.4,3,0,4.9c-0.4,2-1,3.5-2,4.3h-1.1c1-0.6,1.7-2,2.2-4.1c0.5-2.1,0.5-3.8,0-5.2
		L141.1,163.5"/>
	<path class="st5" d="M207.5,188.4c-8.9-1.1-20.9-2.9-35.9-5.6c-13.5-2.4-22.6-4.2-27.3-5.3c-3.1-0.8-6-1.1-8.5-1
		c-2.5,0.1-4.7,0.6-6.4,1.4l0.1-1c1.7-0.8,3.9-1.2,6.6-1.3c2.6,0,5.4,0.4,8.6,1.1c4.1,1,12.9,2.7,26.5,5.1
		c14.1,2.5,25.9,4.4,35.4,5.8c-3.8-2.4-14.6-5.3-32.4-8.8c-11.8-2.3-22.5-4.1-32.1-5.5l-6.5-0.2c-2.1,0.2-3.8,0.8-5.1,1.6l0.2-1
		c1.3-0.8,3-1.2,5.1-1.4l6.3,0.3c10.7,1.5,21.9,3.4,33.4,5.7c18.4,3.6,29.1,6.7,32.2,9.4c0.3,0.2,0.4,0.4,0.3,0.5
		C208,188.3,207.8,188.4,207.5,188.4"/>
	<path class="st5" d="M235.7,126.8c-1,0.4-1.9,1-2.9,1.7c-0.9,0.7-1.6,1.5-2.1,2.3c-0.7,1-1.8,2-3.4,2.8c-0.3,0.2-0.5,0.4-0.6,0.6
		c-0.1,0.3-0.2,0.6-0.2,1.1l0.1,2.8c0.1,1.3,0.2,2.3,0.3,2.9c0.2,1,0.9,2.3,2,3.8c0.9,1.2,1.9,2.4,3.1,3.5c0.4,0.4,0.6,0.8,0.5,1.3
		c0,0.4-0.2,0.7-0.5,1c-0.5,0.5-1,1.1-1.4,1.8c-0.4,0.7-0.7,1.4-0.9,2.2l-0.9-0.2c0.5-1.7,1.3-3.1,2.4-4.1c0.5-0.5,0.6-1,0.2-1.3
		c-3.2-3.2-5-5.8-5.3-7.6c-0.1-0.6-0.2-1.6-0.3-3.1l-0.1-3c0-0.6,0.1-1.1,0.3-1.4c0.2-0.3,0.5-0.6,0.9-0.8c1.7-0.9,2.8-1.7,3.3-2.6
		c0.5-0.7,1.1-1.4,1.9-2.1c0.8-0.7,1.7-1.3,2.6-1.8l-2.3-0.1c-0.3,0-0.5,0-0.5-0.2c0-0.1,0.1-0.2,0.4-0.3c1.1-0.2,2.2-0.1,3.2,0.2
		c0.2,0.1,0.3,0.2,0.3,0.3C236,126.7,235.9,126.7,235.7,126.8"/>
	<path class="st5" d="M233.8,126.3H233c0.6-1,1.6-2.1,3-3.2c1.4-1.2,2.8-2.1,4.1-2.8c-4.2,0.5-8.8,1.9-14,4.1
		c-5,2.1-8.2,4.1-9.8,5.9c-1.8,2-1.4,5.1,1,9c0.7,1.2,1,2.4,0.8,3.6c-0.3,1.3-1.1,2.3-2.6,3.1l-1.6,0.6l-1.5,0.3
		c-1.3,0-2.2,0.3-2.7,0.6l-1.1-0.1c0.3-0.3,0.8-0.6,1.6-0.9c0.7-0.2,1.4-0.3,2-0.4l1.6-0.3c0.6-0.2,1.1-0.3,1.4-0.5
		c1.1-0.5,1.8-1.3,2.1-2.4c0.3-1.1,0.2-2.2-0.5-3.2c-1-1.6-1.7-3.1-2-4.6c-0.5-2.2-0.2-4,1-5.3c1.7-2,5.3-4.1,10.7-6.3
		c5.7-2.4,10.7-3.7,14.9-3.8c0.3,0,0.4,0,0.5,0.1c0,0.1-0.1,0.2-0.3,0.3c-1.3,0.6-2.7,1.5-4.2,2.7
		C235.7,124,234.5,125.2,233.8,126.3"/>
	<path class="st5" d="M134.6,215c-1.5-1.3-3.1-2.6-4.8-3.9l0.7-0.4c1.5,1.1,2.8,2.2,3.9,3.3c-0.4-1.8-1.1-3.5-2-5.3l0.2-1.2
		c0.6,0.9,1.1,2.1,1.6,3.5c0.4,1.3,0.7,2.6,0.9,3.7c0,0.2,0,0.3-0.1,0.4C134.9,215.2,134.8,215.2,134.6,215"/>
	<path class="st5" d="M90.2,108.1c-0.4-0.4-1.3-1.5-2.8-3.2l0.5-0.6c1.3,1.7,2.3,2.8,2.8,3.2L90.2,108.1"/>
	<path class="st5" d="M107.9,56.3c-2,1.9-3.7,3.9-5.3,6.2c1.5-0.5,3.3-1.3,5.3-2.4c2.2-1.3,3.8-2.5,4.7-3.6l0.8,0
		c-1,1.5-2.8,2.9-5.5,4.3c-2.4,1.3-4.3,2.1-5.9,2.3c-0.3,0.1-0.4,0-0.2-0.4c1.8-3,3.7-5.3,5.6-7.1L107.9,56.3"/>
	<path class="st2" d="M120.7,50.3c0.6-0.1,1.2,0,1.7,0.4c0.4,0.4,0.6,0.8,0.6,1.4c0,0.6-0.3,1.2-0.7,1.9c-0.3,0.5-1.5,1.6-3.4,3.1
		c-1.8,1.5-3.2,2.6-4.2,3.2c0.1-0.9,0.5-2.1,1.3-3.7c0.5-1.2,1.1-2.3,1.8-3.3c-1.2,0.9-4.6,2.5-10.1,4.7c1.6-2,2.7-3.3,3.2-3.8
		c-1,0.4-2.6,0.7-4.6,0.9l-4.3,0.3c1.1-1.6,3-3,5.8-4.1c2.9-1.2,5.1-1.4,6.6-0.5c0.4-0.4,0.9-0.7,1.3-1c0.5-0.2,0.9-0.3,1.3-0.3
		c0.5,0,1,0.1,1.3,0.4c0.5,0.4,0.8,0.9,0.9,1.7C119.4,50.9,120,50.4,120.7,50.3"/>
	<path class="st2" d="M145.1,147.7c1.8-0.5,3.2-0.8,4.2-0.9c3.1-0.5,5.9,1,8.6,4.3c2.5,3.2,3.8,6.5,3.8,10.1c0,4.3-0.5,8-1.7,11.1
		c-1.2,3-2.8,5.2-4.9,6.8c-1.4,1-3.1,1.4-5.2,1.4l-4.9-0.6c-2-0.4-3.4-0.7-4.1-1c-1-0.4-1.7-0.8-2-1c-0.7-0.5-1-1.1-1-1.7l2.7,0.3
		c0.2,0.4,0.7,0.7,1.5,0.8c0.9,0.1,1.8-0.2,2.6-0.7c2.3-1.5,4-3.6,5.1-6.3c1-2.5,1.3-5.3,1-8.2c-0.3-2.4-0.8-4.5-1.6-6.2
		c-0.9-2.2-2.1-3.7-3.6-4.5c-0.6-0.3-1.4-0.5-2.2-0.5c-0.9,0-1.6,0.3-2,0.8l-2.3,0.3c0.1-0.5,0.4-1,0.7-1.5c0.4-0.6,0.9-1,1.4-1.2
		C142,148.6,143.2,148.2,145.1,147.7"/>
	<path class="st2" d="M162.8,143.9c2.5-0.5,4.5-0.8,6-0.9c0.8-0.1,1.8,0,2.8,0.3c0.8,0.2,1.5,0.4,2.1,0.7c3.1,1.5,5.6,3.9,7.5,7.4
		c1.9,3.5,2.9,7.4,2.9,11.7c0,3.3-0.5,6.4-1.5,9.4c-1.2,3.5-3.2,6.6-5.8,9.4c-0.9,1-1.9,1.7-3,2.1c-1.1,0.4-2.3,0.5-3.8,0.4
		l-4.1-0.5l-4.5-0.8c-1.2-0.3-2.1-0.7-2.8-1.4c-0.6-0.6-0.9-1.2-0.9-1.9l2.7,0.4c0.3,0.4,1,0.5,1.9,0.5c0.9,0,1.5-0.2,1.9-0.5
		c3-2,5.3-4.7,6.8-8.2c1.3-3,1.9-6.2,1.8-9.7c-0.1-3.9-1.1-7.2-3.1-9.9c-1.8-2.5-4.3-4.3-7.3-5.3c-1-0.3-2.1-0.4-3.1-0.3
		c-0.9,0.1-1.6,0.4-2,0.8l-1.4,0.3c0-0.9,0.2-1.6,0.5-2c0.2-0.4,0.6-0.7,1.1-0.8C158.5,144.8,160.3,144.4,162.8,143.9"/>
	<path class="st6" d="M122.4,53.8c-0.7,0.8-1.8,1.8-3.2,3.1c-1.8,1.6-3.2,2.7-4.4,3.4c0.4-0.8,1.8-2.4,4-4.8c1.8-2,3.1-3.4,4-4.2
		C123.3,52,123.1,52.9,122.4,53.8"/>
	<path class="st6" d="M107.7,57.9c1.1-0.9,2.9-2.2,5.5-3.9c2.3-1.6,4.1-2.7,5.5-3.5l0.3,0.9l-1,1.7c-0.9,0.6-2.6,1.4-4.9,2.5
		C110.6,56.7,108.8,57.5,107.7,57.9"/>
	<path class="st6" d="M106.4,55.1c-2.1,0.3-3.5,0.4-4.4,0.3c1.6-1,3.4-1.8,5.7-2.5c2.3-0.7,4-0.9,5-0.6l-1.8,1.9
		C109.7,54.5,108.2,54.8,106.4,55.1"/>
	<path class="st6" d="M161.9,162.5c-0.2,3.5-0.8,6.6-1.7,9.2c-1.2,3.3-2.9,5.7-5.1,7.1c-1,0.6-1.8,1.1-2.5,1.3
		c-0.8,0.3-1.7,0.3-2.8,0.3l-4.9-0.7c-2.2-0.4-3.7-0.7-4.4-1c-0.9-0.4-1.6-0.7-1.9-1c-0.6-0.5-0.9-1-0.9-1.7l2.8,0.3
		c0.1,0.4,0.6,0.7,1.5,0.8c0.9,0.1,1.7-0.1,2.5-0.6c2.3-1.5,4-3.6,5.2-6.2c1.1-2.7,1.5-5.5,1-8.4l5.6,0.4L161.9,162.5"/>
	<path class="st6" d="M184.2,163.7c-0.2,4.1-1.1,7.9-2.6,11.3c-1.5,3.3-3.3,5.8-5.5,7.5c-1,0.8-1.9,1.3-2.7,1.6
		c-1,0.4-2.1,0.5-3.3,0.3l-4.6-0.7l-4-0.6c-1-0.2-1.9-0.6-2.6-1.1c-0.9-0.7-1.3-1.5-1.2-2.4l2.3,0.5c0.4,0.4,1.1,0.7,2,0.7
		c1,0,1.9-0.3,2.7-0.9c2.8-2,4.7-4.4,6-7.2c1.1-2.6,1.8-5.7,1.8-9.5l5.8,0.2L184.2,163.7"/>
	<path class="st6" d="M161.4,166.5c-0.2,1.9-0.5,3.4-0.9,4.4c-3.3-0.6-6.8-1.3-10.5-2.1c0.3-0.7,0.5-1.8,0.6-3.4l5.2,0.5
		L161.4,166.5"/>
	<path class="st6" d="M183.7,168.1c-0.5,2.7-1.1,4.7-1.6,6l-11.1-2.1l0.8-2.3c0.2-0.8,0.4-1.7,0.5-2.5L183.7,168.1"/>
	<path class="st5" d="M122.3,54.4c-2,2-4.5,4.1-7.6,6.2c-0.2,0.1-0.3,0.2-0.3,0.1c-0.1-0.1-0.1-0.2,0-0.4c0.4-1.5,1-3.1,1.8-4.8
		c0.9-1.7,1.8-3.2,3-4.6c0.5-0.7,1.2-1,1.9-1.1c0.6,0,1.2,0.2,1.6,0.6c0.5,0.5,0.7,1,0.7,1.7C123.3,53,122.9,53.7,122.3,54.4
		 M121,50.6c-0.5,0-1,0.3-1.4,0.8c-0.9,1.2-1.8,2.5-2.7,4.1c-0.9,1.6-1.5,3.1-1.9,4.3c2.4-1.7,4.7-3.7,7-6c0.5-0.5,0.7-1,0.8-1.6
		c0-0.5-0.2-0.9-0.5-1.3C121.8,50.7,121.4,50.5,121,50.6"/>
	<path class="st5" d="M115.3,50.3c-0.9,0.8-2,1.8-3.2,3c-1.5,1.5-2.7,2.8-3.8,4.1c1.6-0.6,3.4-1.5,5.5-2.5c2.1-1.1,3.6-1.9,4.5-2.5
		l-0.6,1.1c-1.1,0.7-2.7,1.5-4.7,2.5c-2,0.9-3.7,1.6-5.3,2.2l-0.4,0c-0.1-0.1,0-0.2,0.1-0.4c1.1-1.5,2.5-3,4-4.6
		c1.4-1.4,2.5-2.5,3.4-3.3c0.9-0.8,1.8-1,2.7-0.6c1,0.3,1.5,1,1.6,2.1l-0.6,0.7c0-1-0.3-1.7-1.1-2.1
		C116.8,49.6,116.1,49.7,115.3,50.3"/>
	<path class="st5" d="M101.6,55.3c1.3-1.8,3.3-3.3,6.1-4.4c2.9-1.2,5.2-1.4,6.8-0.4l-0.6,0.5c-1.4-0.8-3.3-0.6-5.8,0.3
		c-2.4,0.9-4.3,2.2-5.8,3.8l4.6-0.5c1.8-0.3,3.2-0.6,4.2-0.9l-0.7,0.9c-1.1,0.3-2.6,0.6-4.5,0.8l-4.1,0.3c-0.2,0-0.3,0-0.3-0.1
		C101.5,55.6,101.5,55.5,101.6,55.3"/>
	<path class="st5" d="M142.8,150.2c0.9-0.1,1.8,0,2.6,0.4c1.8,0.9,3.3,2.6,4.3,5.1c1,2.5,1.5,5.5,1.5,9c0,2.6-0.7,5.1-2,7.4
		c-1.2,2.2-2.7,3.7-4.5,4.7c-1,0.5-1.8,0.7-2.7,0.7c-1,0-1.7-0.4-2.1-1.2l0.8,0c0.5,0.4,1.1,0.5,1.8,0.4c0.6-0.1,1.2-0.3,1.8-0.7
		c1.6-0.9,3-2.4,4.1-4.5c1.2-2.2,1.8-4.5,1.8-6.9c0-3.6-0.6-6.6-1.6-9.1c-1-2.2-2.2-3.6-3.7-4.3c-1.3-0.6-2.5-0.6-3.6,0.1l-0.9,0.1
		C141.1,150.8,141.8,150.4,142.8,150.2"/>
	<path class="st5" d="M141.7,149.3c-1.4,0.5-2.1,1.3-2.3,2.4l-0.7,0.1c0.2-1.6,1.1-2.6,2.7-3.3c1.2-0.5,2.6-0.9,4.1-1.3
		c1.7-0.4,3.1-0.7,4.2-0.9c1.3-0.1,2.7,0.1,4.1,0.8c1.5,0.7,2.8,1.7,4.1,3.1c2.9,3.3,4.3,7.4,4.3,12.3c0,5.1-1.1,9.4-3.3,12.9
		c-2.1,3.4-4.8,5.1-7.9,5.3c-1.4,0.1-3.4-0.1-5.8-0.6c-2.4-0.4-4.3-1-5.5-1.5c-1.5-0.7-2.2-1.5-2.3-2.7l0.8,0
		c0.1,0.7,0.7,1.4,1.8,1.9c1.1,0.5,2.9,1,5.2,1.5c2.4,0.5,4.3,0.7,5.7,0.6c3-0.2,5.5-2,7.5-5.4c2-3.4,3-7.4,3-12
		c0-4.6-1.4-8.5-4.1-11.7c-1.1-1.3-2.4-2.4-3.8-3.1c-1.3-0.7-2.6-1-3.7-0.8c-1.1,0.1-2.5,0.4-4.1,0.9
		C144.2,148.4,142.9,148.8,141.7,149.3"/>
	<path class="st5" d="M163.3,144.2c-2.8,0.5-4.9,1-6,1.4c-0.3,0.1-0.6,0.4-0.8,0.7s-0.3,0.9-0.3,1.7l-0.7,0.2c0-0.8,0.1-1.5,0.3-2
		c0.2-0.6,0.7-1,1.2-1.3c1.2-0.4,3.2-0.9,6.1-1.4c3.1-0.6,5.3-0.8,6.6-0.8c3.4,0.1,6.6,1.8,9.5,5.2c3.1,3.6,4.8,8,5.1,13.1
		c0.2,3.9-0.2,7.6-1.4,11.3c-1.2,3.7-2.9,6.8-5.1,9c-1.3,1.3-2.5,2.2-3.7,2.7c-1.2,0.6-2.5,0.8-3.9,0.7c-3.1-0.3-6.1-0.8-9.2-1.4
		c-1.1-0.2-1.9-0.6-2.6-1.2c-0.8-0.7-1.2-1.5-1.1-2.4l0.7,0c0,0.7,0.3,1.3,1.1,1.9c0.6,0.4,1.3,0.7,2.1,0.9c2.9,0.6,5.9,1.1,9.1,1.4
		c1.3,0.1,2.5-0.1,3.6-0.6c1-0.5,2.1-1.3,3.3-2.5c2.2-2.2,3.9-5.1,5.1-8.7c1.2-3.6,1.6-7.2,1.4-11c-0.3-4.9-1.9-9.1-4.9-12.6
		c-2.8-3.4-5.9-5.1-9.1-5.2C168.4,143.4,166.3,143.6,163.3,144.2"/>
	<path class="st5" d="M157.8,147.6l-1.2,0.2c0.5-0.8,1.7-1.2,3.4-1.2c1.8,0,3.7,0.5,5.5,1.5c2.2,1.2,3.9,2.9,5.2,5.2
		c1.6,2.7,2.4,5.9,2.4,9.6c0.1,3-0.5,6-1.6,8.8c-1,2.5-2.3,4.6-4,6.4c-1.6,1.6-3.1,2.7-4.6,3.1c-1.6,0.4-2.8,0.1-3.6-1.1l1.7,0.3
		c0.8,0.3,1.9,0.1,3.1-0.6c1.3-0.8,2.5-1.9,3.7-3.5c2.9-3.8,4.3-8.3,4.3-13.4c-0.1-5.2-1.7-9.3-4.8-12.3c-1.4-1.3-2.9-2.2-4.6-2.8
		C161.1,147.3,159.5,147.2,157.8,147.6"/>
	<path class="st5" d="M145.4,151l-7.5,1.3l-0.6-0.7l7-1.1L145.4,151"/>
	<path class="st5" d="M161.3,147.1l-5.9,1.4l-0.7-0.5l4.8-1.2L161.3,147.1"/>
	<path class="st5" d="M143,177.2c-2.8-0.6-5.4-0.8-7.8-0.7c-2.3,0.1-4.3,0.6-5.9,1.4l0.1-1c1.7-0.8,3.8-1.2,6.4-1.2
		c2.5,0,5.3,0.3,8.3,1L143,177.2"/>
	<path class="st5" d="M155.1,178.9l8.4,1.6l-1.3,0.6l-8-1.5L155.1,178.9"/>
</g>
<image style="overflow:visible;" width="725" height="753" xlink:href="umbreon.png"  transform="matrix(0.3421 0 0 0.3289 -90 313.6011)">
</image>
<image style="overflow:visible;" width="300" height="300" xlink:href="doubleblade.png"  transform="matrix(0.8267 0 0 0.8267 -368.0607 -92.1598)">
</image>
</svg>
